<svg width="60" height="60" viewBox="0 0 60 60" fill="none" xmlns="http://www.w3.org/2000/svg">
<circle cx="30" cy="30" r="30" fill="#5F1DB4"/>
<path d="M29.548 31.0783C30.0527 31.0783 30.5531 30.8301 31.0491 30.3336L41.8232 19.7089C41.3876 19.2363 40.5592 19 39.3379 19H19.4167C18.3391 19 17.6012 19.2146 17.2032 19.6438L28.0508 30.3336C28.5411 30.8301 29.0402 31.0783 29.548 31.0783ZM16.3415 38.2109L25.1788 29.5764L16.3011 20.8574C16.1004 21.1958 16 21.7849 16 22.625V36.3665C16 37.2474 16.1138 37.8622 16.3415 38.2109ZM19.6623 40H39.5834C40.6471 40 41.3808 39.7883 41.7846 39.3649L32.8463 30.6096L31.9609 31.4964C31.1809 32.2379 30.3766 32.6087 29.548 32.6087C28.7137 32.6087 27.9107 32.2379 27.139 31.4964L26.241 30.6096L17.2892 39.3873C17.7254 39.7958 18.5164 40 19.6623 40ZM42.6865 38.1598C42.8955 37.8158 43 37.218 43 36.3665V22.625C43 21.8138 42.9089 21.2486 42.7267 20.9293L33.9124 29.5764L42.6865 38.1598Z" fill="white"/>
</svg>
