<svg width="60" height="60" viewBox="0 0 60 60" fill="none" xmlns="http://www.w3.org/2000/svg">
<circle cx="30" cy="30" r="30" fill="#FF005C"/>
<path d="M19.6678 40V24.7273H23.2672V40H19.6678ZM21.4775 22.5597C20.9074 22.5597 20.4168 22.3707 20.0059 21.9929C19.5949 21.6084 19.3894 21.1477 19.3894 20.6108C19.3894 20.0672 19.5949 19.6065 20.0059 19.2287C20.4168 18.8442 20.9074 18.652 21.4775 18.652C22.0542 18.652 22.5447 18.8442 22.949 19.2287C23.36 19.6065 23.5655 20.0672 23.5655 20.6108C23.5655 21.1477 23.36 21.6084 22.949 21.9929C22.5447 22.3707 22.0542 22.5597 21.4775 22.5597ZM30.568 31.0511V40H26.9686V24.7273H30.4089V27.3224H30.5879C30.9392 26.4673 31.4993 25.7879 32.2683 25.2841C33.0439 24.7803 34.0017 24.5284 35.1419 24.5284C36.1958 24.5284 37.1139 24.7538 37.8961 25.2045C38.685 25.6553 39.2948 26.3082 39.7257 27.1634C40.1632 28.0185 40.3786 29.0559 40.372 30.2756V40H36.7725V30.8324C36.7725 29.8116 36.5074 29.0128 35.9771 28.4361C35.4534 27.8594 34.7276 27.571 33.7995 27.571C33.1698 27.571 32.6097 27.7102 32.1191 27.9886C31.6352 28.2604 31.2541 28.6548 30.9757 29.1719C30.7039 29.6889 30.568 30.3153 30.568 31.0511Z" fill="white"/>
</svg>
