<svg width="99" height="432" viewBox="0 0 99 432" fill="none" xmlns="http://www.w3.org/2000/svg">
<path d="M82.184 193.24C83.432 193.976 84.424 195.016 85.16 196.36C85.896 197.704 86.264 199.288 86.264 201.112C86.264 203.256 85.704 205.192 84.584 206.92C83.464 208.68 81.864 210.056 79.784 211.048C77.704 212.072 75.272 212.584 72.488 212.584C69.704 212.584 67.256 212.072 65.144 211.048C63.064 210.056 61.464 208.68 60.344 206.92C59.224 205.192 58.664 203.256 58.664 201.112C58.664 199.288 59.032 197.704 59.768 196.36C60.504 195.048 61.496 194.008 62.744 193.24H46.136V183.832H85.928V193.24H82.184ZM72.488 203.032C74.248 203.032 75.608 202.552 76.568 201.592C77.56 200.664 78.056 199.512 78.056 198.136C78.056 196.76 77.56 195.592 76.568 194.632C75.576 193.704 74.216 193.24 72.488 193.24C70.728 193.24 69.352 193.704 68.36 194.632C67.368 195.592 66.872 196.76 66.872 198.136C66.872 199.512 67.368 200.664 68.36 201.592C69.384 202.552 70.76 203.032 72.488 203.032ZM72.776 244.585C72.04 244.585 71.304 244.537 70.568 244.441V226.633C69.096 226.729 67.992 227.129 67.256 227.833C66.552 228.569 66.2 229.497 66.2 230.617C66.2 232.185 66.904 233.305 68.312 233.977V244.009C66.456 243.593 64.792 242.777 63.32 241.561C61.88 240.377 60.744 238.873 59.912 237.049C59.08 235.225 58.664 233.209 58.664 231.001C58.664 228.345 59.224 225.977 60.344 223.897C61.464 221.849 63.064 220.233 65.144 219.049C67.224 217.897 69.672 217.321 72.488 217.321C75.304 217.321 77.736 217.897 79.784 219.049C81.864 220.201 83.464 221.801 84.584 223.849C85.704 225.929 86.264 228.313 86.264 231.001C86.264 233.657 85.72 236.009 84.632 238.057C83.544 240.105 81.976 241.705 79.928 242.857C77.912 244.009 75.528 244.585 72.776 244.585ZM75.128 234.985C76.28 234.985 77.176 234.601 77.816 233.833C78.488 233.065 78.824 232.105 78.824 230.953C78.824 229.801 78.504 228.857 77.864 228.121C77.256 227.385 76.344 226.905 75.128 226.681V234.985ZM67.016 266.723H59V262.643C59 255.763 62.408 252.323 69.224 252.323H78.104V249.011H85.928V252.323H92.456V261.779H85.928V266.675H78.104V261.779H69.08C68.344 261.779 67.816 261.939 67.496 262.259C67.176 262.611 67.016 263.187 67.016 263.987V266.723ZM78.104 287.982V283.758H59V274.302H78.104V271.374H85.928V274.302H86.168C89.624 274.302 92.264 275.31 94.088 277.326C95.944 279.374 96.872 282.302 96.872 286.11C96.872 286.878 96.856 287.47 96.824 287.886H88.808C88.84 287.63 88.856 287.278 88.856 286.83C88.856 285.806 88.616 285.054 88.136 284.574C87.688 284.094 86.952 283.822 85.928 283.758V287.982H78.104ZM88.424 298.496C88.424 296.832 88.872 295.488 89.768 294.464C90.696 293.472 91.848 292.976 93.224 292.976C94.632 292.976 95.8 293.472 96.728 294.464C97.656 295.488 98.12 296.832 98.12 298.496C98.12 300.128 97.656 301.44 96.728 302.432C95.8 303.456 94.632 303.968 93.224 303.968C91.848 303.968 90.696 303.456 89.768 302.432C88.872 301.44 88.424 300.128 88.424 298.496ZM85.928 303.152H59V293.744H85.928V303.152ZM86.168 328.526C86.168 331.63 85.128 334.094 83.048 335.918C81 337.742 78.216 338.654 74.696 338.654H59V329.246H73.448C74.984 329.246 76.184 328.846 77.048 328.046C77.944 327.246 78.392 326.174 78.392 324.83C78.392 323.422 77.944 322.318 77.048 321.518C76.184 320.718 74.984 320.318 73.448 320.318H59V310.91H85.928V320.318H82.088C83.304 321.15 84.28 322.27 85.016 323.678C85.784 325.086 86.168 326.702 86.168 328.526ZM72.488 344.68C75.272 344.68 77.704 345.176 79.784 346.168C81.864 347.192 83.464 348.584 84.584 350.344C85.704 352.104 86.264 354.056 86.264 356.2C86.264 357.928 85.896 359.464 85.16 360.808C84.456 362.184 83.48 363.256 82.232 364.024H94.52V373.48H59V364.024H62.744C61.496 363.288 60.504 362.248 59.768 360.904C59.032 359.56 58.664 357.976 58.664 356.152C58.664 354.008 59.224 352.056 60.344 350.296C61.464 348.568 63.064 347.192 65.144 346.168C67.256 345.176 69.704 344.68 72.488 344.68ZM72.488 364.072C74.216 364.072 75.576 363.592 76.568 362.632C77.56 361.704 78.056 360.552 78.056 359.176C78.056 357.768 77.56 356.6 76.568 355.672C75.608 354.744 74.248 354.28 72.488 354.28C70.76 354.28 69.384 354.744 68.36 355.672C67.368 356.6 66.872 357.768 66.872 359.176C66.872 360.552 67.368 361.704 68.36 362.632C69.352 363.592 70.728 364.072 72.488 364.072ZM72.776 406.969C72.04 406.969 71.304 406.921 70.568 406.825V389.017C69.096 389.113 67.992 389.513 67.256 390.217C66.552 390.953 66.2 391.881 66.2 393.001C66.2 394.569 66.904 395.689 68.312 396.361V406.393C66.456 405.977 64.792 405.161 63.32 403.945C61.88 402.761 60.744 401.257 59.912 399.433C59.08 397.609 58.664 395.593 58.664 393.385C58.664 390.729 59.224 388.361 60.344 386.281C61.464 384.233 63.064 382.617 65.144 381.433C67.224 380.281 69.672 379.705 72.488 379.705C75.304 379.705 77.736 380.281 79.784 381.433C81.864 382.585 83.464 384.185 84.584 386.233C85.704 388.313 86.264 390.697 86.264 393.385C86.264 396.041 85.72 398.393 84.632 400.441C83.544 402.489 81.976 404.089 79.928 405.241C77.912 406.393 75.528 406.969 72.776 406.969ZM75.128 397.369C76.28 397.369 77.176 396.985 77.816 396.217C78.488 395.449 78.824 394.489 78.824 393.337C78.824 392.185 78.504 391.241 77.864 390.505C77.256 389.769 76.344 389.289 75.128 389.065V397.369ZM81.176 422.627C82.712 423.683 83.928 424.963 84.824 426.467C85.72 427.971 86.168 429.587 86.168 431.315H76.136V428.675C76.136 426.627 75.736 425.107 74.936 424.115C74.136 423.123 72.744 422.627 70.76 422.627H59V413.219H85.928V422.627H81.176Z" fill="#7A50BE"/>
<path d="M17.896 0.365244C19.6667 0.365244 21.2347 0.727911 22.6 1.45324C23.9653 2.19991 25.0213 3.20258 25.768 4.46124C26.536 5.74124 26.92 7.14924 26.92 8.68524C26.92 10.0719 26.6427 11.2772 26.088 12.3012C25.5547 13.3466 24.8827 14.1786 24.072 14.7972H26.632V18.4772H9V14.7972H11.624C10.792 14.1786 10.0987 13.3359 9.544 12.2692C8.98933 11.2026 8.712 9.98658 8.712 8.62124C8.712 7.10658 9.096 5.71991 9.864 4.46124C10.6533 3.20258 11.7413 2.19991 13.128 1.45324C14.536 0.727911 16.1253 0.365244 17.896 0.365244ZM17.832 14.7972C19.048 14.7972 20.104 14.5412 21 14.0292C21.896 13.5386 22.5787 12.8879 23.048 12.0772C23.5173 11.2666 23.752 10.3919 23.752 9.45324C23.752 8.51458 23.5173 7.63991 23.048 6.82924C22.6 6.01858 21.928 5.35724 21.032 4.84524C20.1573 4.35458 19.112 4.10924 17.896 4.10924C16.68 4.10924 15.6133 4.35458 14.696 4.84524C13.7787 5.35724 13.0747 6.01858 12.584 6.82924C12.1147 7.66124 11.88 8.53591 11.88 9.45324C11.88 10.3919 12.1147 11.2666 12.584 12.0772C13.0533 12.8879 13.736 13.5386 14.632 14.0292C15.5493 14.5412 16.616 14.7972 17.832 14.7972ZM24.04 28.5168C24.8507 29.1354 25.5333 29.9781 26.088 31.0448C26.6427 32.1114 26.92 33.3168 26.92 34.6608C26.92 36.1968 26.536 37.5941 25.768 38.8528C25.0213 40.1328 23.9653 41.1354 22.6 41.8608C21.2347 42.5861 19.6667 42.9488 17.896 42.9488C16.1253 42.9488 14.536 42.5861 13.128 41.8608C11.7413 41.1354 10.6533 40.1328 9.864 38.8528C9.096 37.5941 8.712 36.1968 8.712 34.6608C8.712 33.3168 8.97867 32.1221 9.512 31.0768C10.0667 30.0314 10.7493 29.1781 11.56 28.5168H0.615999V24.8688H26.632V28.5168H24.04ZM17.896 39.2368C19.112 39.2368 20.1573 38.9808 21.032 38.4688C21.928 37.9781 22.6 37.3168 23.048 36.4848C23.5173 35.6741 23.752 34.7994 23.752 33.8608C23.752 32.9434 23.5173 32.0688 23.048 31.2368C22.5787 30.4261 21.896 29.7648 21 29.2528C20.104 28.7621 19.048 28.5168 17.832 28.5168C16.616 28.5168 15.5493 28.7621 14.632 29.2528C13.736 29.7648 13.0533 30.4261 12.584 31.2368C12.1147 32.0688 11.88 32.9434 11.88 33.8608C11.88 34.7994 12.1147 35.6741 12.584 36.4848C13.0747 37.3168 13.7787 37.9781 14.696 38.4688C15.6133 38.9808 16.68 39.2368 17.896 39.2368ZM24.04 51.8042C24.8507 52.4229 25.5333 53.2656 26.088 54.3322C26.6427 55.3989 26.92 56.6042 26.92 57.9482C26.92 59.4842 26.536 60.8816 25.768 62.1402C25.0213 63.4202 23.9653 64.4229 22.6 65.1482C21.2347 65.8736 19.6667 66.2362 17.896 66.2362C16.1253 66.2362 14.536 65.8736 13.128 65.1482C11.7413 64.4229 10.6533 63.4202 9.864 62.1402C9.096 60.8816 8.712 59.4842 8.712 57.9482C8.712 56.6042 8.97867 55.4096 9.512 54.3642C10.0667 53.3189 10.7493 52.4656 11.56 51.8042H0.615999V48.1562H26.632V51.8042H24.04ZM17.896 62.5242C19.112 62.5242 20.1573 62.2682 21.032 61.7562C21.928 61.2656 22.6 60.6042 23.048 59.7722C23.5173 58.9616 23.752 58.0869 23.752 57.1482C23.752 56.2309 23.5173 55.3562 23.048 54.5242C22.5787 53.7136 21.896 53.0522 21 52.5402C20.104 52.0496 19.048 51.8042 17.832 51.8042C16.616 51.8042 15.5493 52.0496 14.632 52.5402C13.736 53.0522 13.0533 53.7136 12.584 54.5242C12.1147 55.3562 11.88 56.2309 11.88 57.1482C11.88 58.0869 12.1147 58.9616 12.584 59.7722C13.0747 60.6042 13.7787 61.2656 14.696 61.7562C15.6133 62.2682 16.68 62.5242 17.896 62.5242ZM8.712 79.0917C8.712 77.4277 9.08533 75.9237 9.832 74.5797C10.6 73.2357 11.6667 72.1797 13.032 71.4117C14.4187 70.6437 16.0187 70.2597 17.832 70.2597C19.624 70.2597 21.2133 70.6544 22.6 71.4437C23.9867 72.2331 25.0533 73.3104 25.8 74.6757C26.5467 76.0411 26.92 77.5664 26.92 79.2517C26.92 80.9371 26.5467 82.4624 25.8 83.8277C25.0533 85.1931 23.9867 86.2704 22.6 87.0597C21.2133 87.8491 19.624 88.2437 17.832 88.2437C16.04 88.2437 14.4507 87.8384 13.064 87.0277C11.6773 86.2171 10.6 85.1077 9.832 83.6997C9.08533 82.3131 8.712 80.7771 8.712 79.0917ZM11.88 79.0917C11.88 80.0304 12.104 80.9051 12.552 81.7157C13 82.5477 13.672 83.2197 14.568 83.7317C15.464 84.2437 16.552 84.4997 17.832 84.4997C19.112 84.4997 20.1893 84.2544 21.064 83.7637C21.96 83.2731 22.632 82.6224 23.08 81.8117C23.528 81.0011 23.752 80.1264 23.752 79.1877C23.752 78.2491 23.528 77.3744 23.08 76.5637C22.632 75.7744 21.96 75.1451 21.064 74.6757C20.1893 74.2064 19.112 73.9717 17.832 73.9717C15.9333 73.9717 14.4613 74.4517 13.416 75.4117C12.392 76.3931 11.88 77.6197 11.88 79.0917ZM28.968 95.306C28.968 94.6447 29.192 94.09 29.64 93.642C30.088 93.194 30.6427 92.97 31.304 92.97C31.9653 92.97 32.52 93.194 32.968 93.642C33.416 94.09 33.64 94.6447 33.64 95.306C33.64 95.946 33.416 96.49 32.968 96.938C32.52 97.386 31.9653 97.61 31.304 97.61C30.6427 97.61 30.088 97.386 29.64 96.938C29.192 96.49 28.968 95.946 28.968 95.306ZM26.632 97.098H9V93.45H26.632V97.098ZM26.92 112.383C26.92 113.77 26.632 115.007 26.056 116.095C25.48 117.205 24.6267 118.069 23.496 118.687C22.3653 119.306 21 119.615 19.4 119.615H9V115.999H18.856C20.4347 115.999 21.64 115.605 22.472 114.815C23.3253 114.026 23.752 112.949 23.752 111.583C23.752 110.218 23.3253 109.13 22.472 108.319C21.64 107.53 20.4347 107.135 18.856 107.135H9V103.487H26.632V107.135H24.616C25.3413 107.733 25.9067 108.49 26.312 109.407C26.7173 110.346 26.92 111.338 26.92 112.383ZM23.656 130.125H13.896C13.2347 130.125 12.7547 130.274 12.456 130.573C12.1787 130.893 12.04 131.426 12.04 132.173V134.413H9V131.533C9 129.89 9.384 128.631 10.152 127.757C10.92 126.882 12.168 126.445 13.896 126.445H23.656V124.365H26.632V126.445H31.016V130.125H26.632V134.413H23.656V130.125ZM26.92 160.719C26.92 162.106 26.632 163.343 26.056 164.431C25.48 165.54 24.6267 166.404 23.496 167.023C22.3653 167.663 21 167.983 19.4 167.983H9V164.367H18.856C20.4347 164.367 21.64 163.972 22.472 163.183C23.3253 162.394 23.752 161.316 23.752 159.951C23.752 158.586 23.3253 157.498 22.472 156.687C21.64 155.898 20.4347 155.503 18.856 155.503H9V151.887H18.856C20.4347 151.887 21.64 151.492 22.472 150.703C23.3253 149.914 23.752 148.836 23.752 147.471C23.752 146.106 23.3253 145.018 22.472 144.207C21.64 143.418 20.4347 143.023 18.856 143.023H9V139.375H26.632V143.023H24.616C25.3413 143.62 25.9067 144.378 26.312 145.295C26.7173 146.212 26.92 147.194 26.92 148.239C26.92 149.647 26.6213 150.906 26.024 152.015C25.4267 153.124 24.5627 153.978 23.432 154.575C24.4987 155.108 25.3413 155.94 25.96 157.071C26.6 158.202 26.92 159.418 26.92 160.719ZM18.248 190.385C17.5867 190.385 16.9893 190.342 16.456 190.257L16.456 176.785C15.048 176.892 13.9173 177.414 13.064 178.353C12.2107 179.292 11.784 180.444 11.784 181.809C11.784 183.772 12.6053 185.158 14.248 185.969L14.248 189.905C12.6267 189.372 11.2933 188.401 10.248 186.993C9.224 185.606 8.712 183.878 8.712 181.809C8.712 180.124 9.08533 178.609 9.832 177.265C10.6 175.942 11.6667 174.897 13.032 174.129C14.4187 173.382 16.0187 173.009 17.832 173.009C19.6453 173.009 21.2347 173.372 22.6 174.097C23.9867 174.844 25.0533 175.878 25.8 177.201C26.5467 178.545 26.92 180.081 26.92 181.809C26.92 183.473 26.5573 184.956 25.832 186.257C25.1067 187.558 24.0827 188.572 22.76 189.297C21.4587 190.022 19.9547 190.385 18.248 190.385ZM19.4 186.577C20.744 186.556 21.8213 186.076 22.632 185.137C23.4427 184.198 23.848 183.036 23.848 181.649C23.848 180.39 23.4427 179.313 22.632 178.417C21.8427 177.521 20.7653 176.988 19.4 176.817V186.577ZM26.92 204.471C26.92 205.858 26.632 207.095 26.056 208.183C25.48 209.292 24.6267 210.156 23.496 210.775C22.3653 211.394 21 211.703 19.4 211.703H9V208.087H18.856C20.4347 208.087 21.64 207.692 22.472 206.903C23.3253 206.114 23.752 205.036 23.752 203.671C23.752 202.306 23.3253 201.218 22.472 200.407C21.64 199.618 20.4347 199.223 18.856 199.223H9V195.575H26.632V199.223H24.616C25.3413 199.82 25.9067 200.578 26.312 201.495C26.7173 202.434 26.92 203.426 26.92 204.471ZM23.656 222.212H13.896C13.2347 222.212 12.7547 222.362 12.456 222.66C12.1787 222.98 12.04 223.514 12.04 224.26V226.5H9V223.62C9 221.978 9.384 220.719 10.152 219.844C10.92 218.97 12.168 218.532 13.896 218.532H23.656V216.452H26.632V218.532H31.016V222.212H26.632V226.5H23.656V222.212ZM8.712 247.775C8.712 246.388 8.95733 245.14 9.448 244.031C9.96 242.943 10.6427 242.079 11.496 241.439C12.3707 240.799 13.3413 240.458 14.408 240.415V244.191C13.6613 244.255 13.032 244.607 12.52 245.247C12.0293 245.908 11.784 246.73 11.784 247.711C11.784 248.735 11.976 249.524 12.36 250.079C12.7653 250.655 13.2773 250.943 13.896 250.943C14.5573 250.943 15.048 250.623 15.368 249.983C15.688 249.364 16.04 248.372 16.424 247.007C16.7867 245.684 17.1387 244.607 17.48 243.775C17.8213 242.943 18.344 242.218 19.048 241.599C19.752 241.002 20.68 240.703 21.832 240.703C22.7707 240.703 23.624 240.98 24.392 241.535C25.1813 242.09 25.8 242.879 26.248 243.903C26.696 244.948 26.92 246.143 26.92 247.487C26.92 249.492 26.408 251.103 25.384 252.319C24.3813 253.556 23.0053 254.218 21.256 254.303V250.655C22.0453 250.591 22.6747 250.271 23.144 249.695C23.6133 249.119 23.848 248.34 23.848 247.359C23.848 246.399 23.6667 245.663 23.304 245.151C22.9413 244.639 22.4613 244.383 21.864 244.383C21.3947 244.383 21 244.554 20.68 244.895C20.36 245.236 20.104 245.652 19.912 246.143C19.7413 246.634 19.5173 247.359 19.24 248.319C18.8987 249.599 18.5467 250.644 18.184 251.455C17.8427 252.287 17.3307 253.002 16.648 253.599C15.9653 254.196 15.0587 254.506 13.928 254.527C12.9253 254.527 12.0293 254.25 11.24 253.695C10.4507 253.14 9.832 252.351 9.384 251.327C8.936 250.324 8.712 249.14 8.712 247.775ZM17.832 258.853C19.6453 258.853 21.2347 259.215 22.6 259.941C23.9867 260.687 25.0533 261.711 25.8 263.013C26.5467 264.314 26.92 265.807 26.92 267.493C26.92 269.626 26.408 271.386 25.384 272.773C24.3813 274.181 22.9413 275.13 21.064 275.621V271.685C21.9387 271.365 22.6213 270.853 23.112 270.149C23.6027 269.445 23.848 268.559 23.848 267.493C23.848 265.999 23.3147 264.805 22.248 263.909C21.2027 263.034 19.7307 262.597 17.832 262.597C15.9333 262.597 14.4507 263.034 13.384 263.909C12.3173 264.805 11.784 265.999 11.784 267.493C11.784 269.605 12.712 271.002 14.568 271.685V275.621C12.776 275.109 11.3467 274.149 10.28 272.741C9.23467 271.333 8.712 269.583 8.712 267.493C8.712 265.807 9.08533 264.314 9.832 263.013C10.6 261.711 11.6667 260.687 13.032 259.941C14.4187 259.215 16.0187 258.853 17.832 258.853ZM26.92 289.976C26.92 291.32 26.632 292.515 26.056 293.56C25.48 294.627 24.6267 295.459 23.496 296.056C22.3653 296.675 21 296.984 19.4 296.984H9V293.368H18.856C20.4347 293.368 21.64 292.974 22.472 292.184C23.3253 291.395 23.752 290.318 23.752 288.952C23.752 287.587 23.3253 286.499 22.472 285.688C21.64 284.899 20.4347 284.504 18.856 284.504H9V280.856H32.68V284.504H24.584C25.3307 285.123 25.9067 285.902 26.312 286.84C26.7173 287.8 26.92 288.846 26.92 289.976ZM18.248 319.397C17.5867 319.397 16.9893 319.355 16.456 319.269V305.797C15.048 305.904 13.9173 306.427 13.064 307.365C12.2107 308.304 11.784 309.456 11.784 310.821C11.784 312.784 12.6053 314.171 14.248 314.981V318.917C12.6267 318.384 11.2933 317.413 10.248 316.005C9.224 314.619 8.712 312.891 8.712 310.821C8.712 309.136 9.08533 307.621 9.832 306.277C10.6 304.955 11.6667 303.909 13.032 303.141C14.4187 302.395 16.0187 302.021 17.832 302.021C19.6453 302.021 21.2347 302.384 22.6 303.109C23.9867 303.856 25.0533 304.891 25.8 306.213C26.5467 307.557 26.92 309.093 26.92 310.821C26.92 312.485 26.5573 313.968 25.832 315.269C25.1067 316.571 24.0827 317.584 22.76 318.309C21.4587 319.035 19.9547 319.397 18.248 319.397ZM19.4 315.589C20.744 315.568 21.8213 315.088 22.632 314.149C23.4427 313.211 23.848 312.048 23.848 310.661C23.848 309.403 23.4427 308.325 22.632 307.429C21.8427 306.533 20.7653 306 19.4 305.829V315.589ZM17.896 323.372C19.6667 323.372 21.2347 323.734 22.6 324.46C23.9653 325.206 25.0213 326.209 25.768 327.468C26.536 328.748 26.92 330.166 26.92 331.724C26.92 332.876 26.664 334.006 26.152 335.116C25.6613 336.246 25 337.142 24.168 337.804H32.68V341.484H9V337.804H11.656C10.8027 337.206 10.0987 336.374 9.544 335.308C8.98933 334.262 8.712 333.057 8.712 331.692C8.712 330.156 9.096 328.748 9.864 327.468C10.6533 326.209 11.7413 325.206 13.128 324.46C14.536 323.734 16.1253 323.372 17.896 323.372ZM17.832 337.804C19.048 337.804 20.104 337.548 21 337.036C21.896 336.545 22.5787 335.894 23.048 335.084C23.5173 334.273 23.752 333.398 23.752 332.46C23.752 331.521 23.5173 330.646 23.048 329.836C22.6 329.025 21.928 328.364 21.032 327.852C20.1573 327.361 19.112 327.116 17.896 327.116C16.68 327.116 15.6133 327.361 14.696 327.852C13.7787 328.364 13.0747 329.025 12.584 329.836C12.1147 330.668 11.88 331.542 11.88 332.46C11.88 333.398 12.1147 334.273 12.584 335.084C13.0533 335.894 13.736 336.545 14.632 337.036C15.5493 337.548 16.616 337.804 17.832 337.804ZM26.632 363.843H9V360.195H11.08C10.3547 359.619 9.77867 358.862 9.352 357.923C8.94667 357.006 8.744 356.024 8.744 354.979C8.744 353.592 9.032 352.344 9.608 351.235C10.184 350.147 11.0373 349.283 12.168 348.643C13.2987 348.024 14.664 347.715 16.264 347.715H26.632V351.331H16.808C15.2293 351.331 14.0133 351.726 13.16 352.515C12.328 353.304 11.912 354.382 11.912 355.747C11.912 357.112 12.328 358.19 13.16 358.979C14.0133 359.79 15.2293 360.195 16.808 360.195H26.632V363.843ZM32.68 373.904H9V370.256H32.68V373.904ZM28.968 382.15C28.968 381.488 29.192 380.934 29.64 380.486C30.088 380.038 30.6427 379.814 31.304 379.814C31.9653 379.814 32.52 380.038 32.968 380.486C33.416 380.934 33.64 381.488 33.64 382.15C33.64 382.79 33.416 383.334 32.968 383.782C32.52 384.23 31.9653 384.454 31.304 384.454C30.6427 384.454 30.088 384.23 29.64 383.782C29.192 383.334 28.968 382.79 28.968 382.15ZM26.632 383.942H9V380.294H26.632V383.942ZM26.92 399.227C26.92 400.614 26.632 401.851 26.056 402.939C25.48 404.049 24.6267 404.913 23.496 405.531C22.3653 406.15 21 406.459 19.4 406.459H9V402.843H18.856C20.4347 402.843 21.64 402.449 22.472 401.659C23.3253 400.87 23.752 399.793 23.752 398.427C23.752 397.062 23.3253 395.974 22.472 395.163C21.64 394.374 20.4347 393.979 18.856 393.979H9V390.331H26.632V393.979H24.616C25.3413 394.577 25.9067 395.334 26.312 396.251C26.7173 397.19 26.92 398.182 26.92 399.227ZM26.92 419.817C26.92 421.182 26.6427 422.387 26.088 423.433C25.5547 424.499 24.8827 425.331 24.072 425.929H26.632V429.609H8.712C7.09067 429.609 5.65067 429.267 4.392 428.585C3.112 427.902 2.10933 426.91 1.384 425.609C0.658666 424.329 0.296 422.793 0.296 421.001C0.296 418.611 0.861333 416.627 1.992 415.049C3.10133 413.47 4.616 412.574 6.536 412.361V415.977C5.61867 416.254 4.88267 416.841 4.328 417.737C3.752 418.654 3.464 419.742 3.464 421.001C3.464 422.473 3.912 423.657 4.808 424.553C5.704 425.47 7.00533 425.929 8.712 425.929H11.656C10.824 425.31 10.12 424.467 9.544 423.401C8.98933 422.355 8.712 421.161 8.712 419.817C8.712 418.281 9.096 416.873 9.864 415.593C10.6533 414.334 11.7413 413.331 13.128 412.585C14.536 411.859 16.1253 411.497 17.896 411.497C19.6667 411.497 21.2347 411.859 22.6 412.585C23.9653 413.331 25.0213 414.334 25.768 415.593C26.536 416.873 26.92 418.281 26.92 419.817ZM17.832 425.929C19.048 425.929 20.104 425.673 21 425.161C21.896 424.67 22.5787 424.019 23.048 423.209C23.5173 422.398 23.752 421.523 23.752 420.585C23.752 419.646 23.5173 418.771 23.048 417.961C22.6 417.15 21.928 416.489 21.032 415.977C20.1573 415.486 19.112 415.241 17.896 415.241C16.68 415.241 15.6133 415.486 14.696 415.977C13.7787 416.489 13.0747 417.15 12.584 417.961C12.1147 418.793 11.88 419.667 11.88 420.585C11.88 421.523 12.1147 422.398 12.584 423.209C13.0533 424.019 13.736 424.67 14.632 425.161C15.5493 425.673 16.616 425.929 17.832 425.929Z" fill="#B486FF"/>
</svg>
