<svg width="312" height="29" viewBox="0 0 312 29" fill="none" xmlns="http://www.w3.org/2000/svg">
<path d="M7.22727 23.2642C5.96023 23.2642 4.86932 22.9773 3.95455 22.4034C3.04545 21.8239 2.34659 21.0256 1.85795 20.0085C1.36932 18.9915 1.125 17.8267 1.125 16.5142C1.125 15.1847 1.375 14.0114 1.875 12.9943C2.375 11.9716 3.07955 11.1733 3.98864 10.5994C4.89773 10.0256 5.96875 9.73864 7.2017 9.73864C8.19602 9.73864 9.08239 9.9233 9.8608 10.2926C10.6392 10.6562 11.267 11.1676 11.7443 11.8267C12.2273 12.4858 12.5142 13.2557 12.6051 14.1364H10.125C9.98864 13.5227 9.67614 12.9943 9.1875 12.5511C8.70455 12.108 8.05682 11.8864 7.24432 11.8864C6.53409 11.8864 5.91193 12.0739 5.37784 12.4489C4.84943 12.8182 4.4375 13.3466 4.14205 14.0341C3.84659 14.7159 3.69886 15.5227 3.69886 16.4545C3.69886 17.4091 3.84375 18.233 4.13352 18.9261C4.4233 19.6193 4.83239 20.1562 5.3608 20.5369C5.89489 20.9176 6.52273 21.108 7.24432 21.108C7.72727 21.108 8.16477 21.0199 8.55682 20.8438C8.95455 20.6619 9.28693 20.4034 9.55398 20.0682C9.8267 19.733 10.017 19.3295 10.125 18.858H12.6051C12.5142 19.7045 12.2386 20.4602 11.7784 21.125C11.3182 21.7898 10.7017 22.3125 9.92898 22.6932C9.16193 23.0739 8.26136 23.2642 7.22727 23.2642ZM20.8445 23.2642C19.6172 23.2642 18.5462 22.983 17.6314 22.4205C16.7166 21.858 16.0064 21.071 15.5007 20.0597C14.995 19.0483 14.7422 17.8665 14.7422 16.5142C14.7422 15.1562 14.995 13.9687 15.5007 12.9517C16.0064 11.9347 16.7166 11.1449 17.6314 10.5824C18.5462 10.0199 19.6172 9.73864 20.8445 9.73864C22.0717 9.73864 23.1428 10.0199 24.0575 10.5824C24.9723 11.1449 25.6825 11.9347 26.1882 12.9517C26.6939 13.9687 26.9467 15.1562 26.9467 16.5142C26.9467 17.8665 26.6939 19.0483 26.1882 20.0597C25.6825 21.071 24.9723 21.858 24.0575 22.4205C23.1428 22.983 22.0717 23.2642 20.8445 23.2642ZM20.853 21.125C21.6484 21.125 22.3075 20.9148 22.8303 20.4943C23.353 20.0739 23.7393 19.5142 23.9893 18.8153C24.245 18.1165 24.3729 17.3466 24.3729 16.5057C24.3729 15.6705 24.245 14.9034 23.9893 14.2045C23.7393 13.5 23.353 12.9347 22.8303 12.5085C22.3075 12.0824 21.6484 11.8693 20.853 11.8693C20.0518 11.8693 19.3871 12.0824 18.8587 12.5085C18.3359 12.9347 17.9467 13.5 17.6911 14.2045C17.4411 14.9034 17.3161 15.6705 17.3161 16.5057C17.3161 17.3466 17.4411 18.1165 17.6911 18.8153C17.9467 19.5142 18.3359 20.0739 18.8587 20.4943C19.3871 20.9148 20.0518 21.125 20.853 21.125ZM29.7912 23V9.90909H32.2372V12.0398H32.3991C32.6719 11.3182 33.1179 10.7557 33.7372 10.3523C34.3565 9.94318 35.098 9.73864 35.9616 9.73864C36.8366 9.73864 37.5696 9.94318 38.1605 10.3523C38.7571 10.7614 39.1974 11.3239 39.4815 12.0398H39.6179C39.9304 11.3409 40.4276 10.7841 41.1094 10.3693C41.7912 9.94886 42.6037 9.73864 43.5469 9.73864C44.7344 9.73864 45.7031 10.1108 46.4531 10.8551C47.2088 11.5994 47.5866 12.7216 47.5866 14.2216V23H45.0384V14.4602C45.0384 13.5739 44.7969 12.9318 44.3139 12.5341C43.831 12.1364 43.2543 11.9375 42.5838 11.9375C41.7543 11.9375 41.1094 12.1932 40.6491 12.7045C40.1889 13.2102 39.9588 13.8608 39.9588 14.6562V23H37.419V14.2983C37.419 13.5881 37.1974 13.017 36.7543 12.5852C36.3111 12.1534 35.7344 11.9375 35.0241 11.9375C34.5412 11.9375 34.0952 12.0653 33.6861 12.321C33.2827 12.571 32.956 12.9205 32.706 13.3693C32.4616 13.8182 32.3395 14.3381 32.3395 14.929V23H29.7912ZM51.0021 27.9091V9.90909H53.4908V12.0312H53.7038C53.8516 11.7585 54.0646 11.4432 54.343 11.0852C54.6214 10.7273 55.0078 10.4148 55.5021 10.1477C55.9964 9.875 56.6499 9.73864 57.4624 9.73864C58.5192 9.73864 59.4624 10.0057 60.2919 10.5398C61.1214 11.0739 61.772 11.8437 62.2436 12.8494C62.7209 13.8551 62.9595 15.0653 62.9595 16.4801C62.9595 17.8949 62.7237 19.108 62.2521 20.1193C61.7805 21.125 61.1328 21.9006 60.3089 22.446C59.4851 22.9858 58.5447 23.2557 57.4879 23.2557C56.6925 23.2557 56.0419 23.1222 55.5362 22.8551C55.0362 22.5881 54.6442 22.2756 54.3601 21.9176C54.076 21.5597 53.8572 21.2415 53.7038 20.9631H53.5504V27.9091H51.0021ZM53.4993 16.4545C53.4993 17.375 53.6328 18.1818 53.8999 18.875C54.1669 19.5682 54.5533 20.1108 55.0589 20.5028C55.5646 20.8892 56.1839 21.0824 56.9169 21.0824C57.6783 21.0824 58.3146 20.8807 58.826 20.4773C59.3374 20.0682 59.7237 19.5142 59.9851 18.8153C60.2521 18.1165 60.3857 17.3295 60.3857 16.4545C60.3857 15.5909 60.255 14.8153 59.9936 14.1278C59.7379 13.4403 59.3516 12.8977 58.8345 12.5C58.3232 12.1023 57.6839 11.9034 56.9169 11.9034C56.1783 11.9034 55.5533 12.0937 55.0419 12.4744C54.5362 12.8551 54.1527 13.3864 53.8913 14.0682C53.63 14.75 53.4993 15.5455 53.4993 16.4545ZM71.3288 23.2642C70.1016 23.2642 69.0305 22.983 68.1158 22.4205C67.201 21.858 66.4908 21.071 65.9851 20.0597C65.4794 19.0483 65.2266 17.8665 65.2266 16.5142C65.2266 15.1562 65.4794 13.9687 65.9851 12.9517C66.4908 11.9347 67.201 11.1449 68.1158 10.5824C69.0305 10.0199 70.1016 9.73864 71.3288 9.73864C72.5561 9.73864 73.6271 10.0199 74.5419 10.5824C75.4567 11.1449 76.1669 11.9347 76.6726 12.9517C77.1783 13.9687 77.4311 15.1562 77.4311 16.5142C77.4311 17.8665 77.1783 19.0483 76.6726 20.0597C76.1669 21.071 75.4567 21.858 74.5419 22.4205C73.6271 22.983 72.5561 23.2642 71.3288 23.2642ZM71.3374 21.125C72.1328 21.125 72.7919 20.9148 73.3146 20.4943C73.8374 20.0739 74.2237 19.5142 74.4737 18.8153C74.7294 18.1165 74.8572 17.3466 74.8572 16.5057C74.8572 15.6705 74.7294 14.9034 74.4737 14.2045C74.2237 13.5 73.8374 12.9347 73.3146 12.5085C72.7919 12.0824 72.1328 11.8693 71.3374 11.8693C70.5362 11.8693 69.8714 12.0824 69.343 12.5085C68.8203 12.9347 68.4311 13.5 68.1754 14.2045C67.9254 14.9034 67.8004 15.6705 67.8004 16.5057C67.8004 17.3466 67.9254 18.1165 68.1754 18.8153C68.4311 19.5142 68.8203 20.0739 69.343 20.4943C69.8714 20.9148 70.5362 21.125 71.3374 21.125ZM82.8239 15.2273V23H80.2756V9.90909H82.7216V12.0398H82.8835C83.1847 11.3466 83.6563 10.7898 84.2983 10.3693C84.946 9.94886 85.7614 9.73864 86.7443 9.73864C87.6364 9.73864 88.4176 9.92614 89.0881 10.3011C89.7585 10.6705 90.2784 11.2216 90.6477 11.9545C91.017 12.6875 91.2017 13.5937 91.2017 14.6733V23H88.6534V14.9801C88.6534 14.0312 88.4063 13.2898 87.9119 12.7557C87.4176 12.2159 86.7386 11.946 85.875 11.946C85.2841 11.946 84.7585 12.0739 84.2983 12.3295C83.8438 12.5852 83.483 12.9602 83.2159 13.4545C82.9545 13.9432 82.8239 14.5341 82.8239 15.2273ZM100.261 23.2642C98.9716 23.2642 97.8608 22.9886 96.929 22.4375C96.0028 21.8807 95.2869 21.0994 94.7812 20.0938C94.2812 19.0824 94.0312 17.8977 94.0312 16.5398C94.0312 15.1989 94.2812 14.017 94.7812 12.9943C95.2869 11.9716 95.9915 11.1733 96.8949 10.5994C97.804 10.0256 98.8665 9.73864 100.082 9.73864C100.821 9.73864 101.537 9.8608 102.23 10.1051C102.923 10.3494 103.545 10.733 104.097 11.2557C104.648 11.7784 105.082 12.4574 105.401 13.2926C105.719 14.1222 105.878 15.1307 105.878 16.3182V17.2216H95.4716V15.3125H103.381C103.381 14.642 103.244 14.0483 102.972 13.5312C102.699 13.0085 102.315 12.5966 101.821 12.2955C101.332 11.9943 100.759 11.8438 100.099 11.8438C99.3835 11.8438 98.7585 12.0199 98.2244 12.3722C97.696 12.7187 97.2869 13.1733 96.9972 13.7358C96.7131 14.2926 96.571 14.8977 96.571 15.5511V17.0426C96.571 17.9176 96.7244 18.6619 97.0312 19.2756C97.3438 19.8892 97.7784 20.358 98.3352 20.6818C98.892 21 99.5426 21.1591 100.287 21.1591C100.77 21.1591 101.21 21.0909 101.608 20.9545C102.006 20.8125 102.349 20.6023 102.639 20.3239C102.929 20.0455 103.151 19.7017 103.304 19.2926L105.716 19.7273C105.523 20.4375 105.176 21.0597 104.676 21.5938C104.182 22.1222 103.56 22.5341 102.81 22.8295C102.065 23.1193 101.216 23.2642 100.261 23.2642ZM111.254 15.2273V23H108.705V9.90909H111.151V12.0398H111.313C111.614 11.3466 112.086 10.7898 112.728 10.3693C113.376 9.94886 114.191 9.73864 115.174 9.73864C116.066 9.73864 116.847 9.92614 117.518 10.3011C118.188 10.6705 118.708 11.2216 119.077 11.9545C119.447 12.6875 119.631 13.5937 119.631 14.6733V23H117.083V14.9801C117.083 14.0312 116.836 13.2898 116.342 12.7557C115.847 12.2159 115.168 11.946 114.305 11.946C113.714 11.946 113.188 12.0739 112.728 12.3295C112.273 12.5852 111.913 12.9602 111.646 13.4545C111.384 13.9432 111.254 14.5341 111.254 15.2273ZM129.16 9.90909V11.9545H122.009V9.90909H129.16ZM123.927 6.77273H126.475V19.1562C126.475 19.6506 126.549 20.0227 126.697 20.2727C126.844 20.517 127.035 20.6847 127.268 20.7756C127.506 20.8608 127.765 20.9034 128.043 20.9034C128.248 20.9034 128.427 20.8892 128.58 20.8608C128.734 20.8324 128.853 20.8097 128.938 20.7926L129.398 22.8977C129.251 22.9545 129.04 23.0114 128.768 23.0682C128.495 23.1307 128.154 23.1648 127.745 23.1705C127.075 23.1818 126.45 23.0625 125.87 22.8125C125.29 22.5625 124.822 22.1761 124.464 21.6534C124.106 21.1307 123.927 20.4744 123.927 19.6847V6.77273ZM148.14 13.1051L145.83 13.5142C145.734 13.2187 145.58 12.9375 145.37 12.6705C145.165 12.4034 144.887 12.1847 144.535 12.0142C144.183 11.8437 143.742 11.7585 143.214 11.7585C142.492 11.7585 141.89 11.9205 141.407 12.2443C140.924 12.5625 140.683 12.9744 140.683 13.4801C140.683 13.9176 140.844 14.2699 141.168 14.5369C141.492 14.804 142.015 15.0227 142.737 15.1932L144.816 15.6705C146.021 15.9489 146.918 16.3778 147.509 16.9574C148.1 17.5369 148.396 18.2898 148.396 19.2159C148.396 20 148.168 20.6989 147.714 21.3125C147.265 21.9205 146.637 22.3977 145.83 22.7443C145.029 23.0909 144.1 23.2642 143.043 23.2642C141.577 23.2642 140.381 22.9517 139.455 22.3267C138.529 21.696 137.961 20.8011 137.751 19.642L140.214 19.267C140.367 19.9091 140.683 20.3949 141.16 20.7244C141.637 21.0483 142.259 21.2102 143.026 21.2102C143.862 21.2102 144.529 21.0369 145.029 20.6903C145.529 20.3381 145.779 19.9091 145.779 19.4034C145.779 18.9943 145.626 18.6506 145.319 18.3722C145.018 18.0937 144.555 17.8835 143.93 17.7415L141.714 17.2557C140.492 16.9773 139.589 16.5341 139.004 15.9261C138.424 15.3182 138.134 14.5483 138.134 13.6165C138.134 12.8437 138.35 12.1676 138.782 11.5881C139.214 11.0085 139.81 10.5568 140.572 10.233C141.333 9.90341 142.205 9.73864 143.188 9.73864C144.603 9.73864 145.717 10.0455 146.529 10.6591C147.342 11.267 147.879 12.0824 148.14 13.1051ZM157.308 9.90909V11.9545H150.158V9.90909H157.308ZM152.075 6.77273H154.624V19.1562C154.624 19.6506 154.697 20.0227 154.845 20.2727C154.993 20.517 155.183 20.6847 155.416 20.7756C155.655 20.8608 155.913 20.9034 156.192 20.9034C156.396 20.9034 156.575 20.8892 156.729 20.8608C156.882 20.8324 157.001 20.8097 157.087 20.7926L157.547 22.8977C157.399 22.9545 157.189 23.0114 156.916 23.0682C156.643 23.1307 156.303 23.1648 155.893 23.1705C155.223 23.1818 154.598 23.0625 154.018 22.8125C153.439 22.5625 152.97 22.1761 152.612 21.6534C152.254 21.1307 152.075 20.4744 152.075 19.6847V6.77273ZM163.937 23.2898C163.107 23.2898 162.357 23.1364 161.687 22.8295C161.016 22.517 160.485 22.0653 160.093 21.4744C159.707 20.8835 159.513 20.1591 159.513 19.3011C159.513 18.5625 159.656 17.9545 159.94 17.4773C160.224 17 160.607 16.6222 161.09 16.3438C161.573 16.0653 162.113 15.8551 162.71 15.7131C163.306 15.571 163.914 15.4631 164.533 15.3892C165.317 15.2983 165.954 15.2244 166.442 15.1676C166.931 15.1051 167.286 15.0057 167.508 14.8693C167.729 14.733 167.84 14.5114 167.84 14.2045V14.1449C167.84 13.4006 167.63 12.8239 167.21 12.4148C166.795 12.0057 166.175 11.8011 165.352 11.8011C164.494 11.8011 163.817 11.9915 163.323 12.3722C162.835 12.7472 162.496 13.1648 162.309 13.625L159.914 13.0795C160.198 12.2841 160.613 11.642 161.158 11.1534C161.71 10.6591 162.343 10.3011 163.059 10.0795C163.775 9.85227 164.528 9.73864 165.317 9.73864C165.84 9.73864 166.394 9.80114 166.979 9.92614C167.57 10.0455 168.121 10.267 168.633 10.5909C169.15 10.9148 169.573 11.3778 169.903 11.9801C170.232 12.5767 170.397 13.3523 170.397 14.3068V23H167.908V21.2102H167.806C167.641 21.5398 167.394 21.8636 167.065 22.1818C166.735 22.5 166.312 22.7642 165.795 22.9744C165.278 23.1847 164.658 23.2898 163.937 23.2898ZM164.491 21.2443C165.195 21.2443 165.798 21.1051 166.298 20.8267C166.803 20.5483 167.187 20.1847 167.448 19.7358C167.715 19.2812 167.849 18.7955 167.849 18.2784V16.5909C167.758 16.6818 167.582 16.767 167.32 16.8466C167.065 16.9205 166.772 16.9858 166.442 17.0426C166.113 17.0937 165.792 17.142 165.479 17.1875C165.167 17.2273 164.906 17.2614 164.695 17.2898C164.201 17.3523 163.749 17.4574 163.34 17.6051C162.937 17.7528 162.613 17.9659 162.369 18.2443C162.13 18.517 162.011 18.8807 162.011 19.3352C162.011 19.9659 162.244 20.4432 162.71 20.767C163.175 21.0852 163.769 21.2443 164.491 21.2443ZM179.902 9.90909V11.9545H172.751V9.90909H179.902ZM174.669 6.77273H177.217V19.1562C177.217 19.6506 177.291 20.0227 177.439 20.2727C177.587 20.517 177.777 20.6847 178.01 20.7756C178.249 20.8608 178.507 20.9034 178.786 20.9034C178.99 20.9034 179.169 20.8892 179.322 20.8608C179.476 20.8324 179.595 20.8097 179.68 20.7926L180.141 22.8977C179.993 22.9545 179.783 23.0114 179.51 23.0682C179.237 23.1307 178.896 23.1648 178.487 23.1705C177.817 23.1818 177.192 23.0625 176.612 22.8125C176.033 22.5625 175.564 22.1761 175.206 21.6534C174.848 21.1307 174.669 20.4744 174.669 19.6847V6.77273ZM191.013 17.571V9.90909H193.57V23H191.065V20.733H190.928C190.627 21.4318 190.144 22.0142 189.479 22.4801C188.82 22.9403 187.999 23.1705 187.016 23.1705C186.175 23.1705 185.431 22.9858 184.783 22.6165C184.141 22.2415 183.636 21.6875 183.266 20.9545C182.903 20.2216 182.721 19.3153 182.721 18.2358V9.90909H185.269V17.929C185.269 18.821 185.516 19.5312 186.011 20.0597C186.505 20.5881 187.147 20.8523 187.937 20.8523C188.414 20.8523 188.888 20.733 189.36 20.4943C189.837 20.2557 190.232 19.8949 190.545 19.4119C190.863 18.929 191.019 18.3153 191.013 17.571ZM206.804 13.1051L204.494 13.5142C204.398 13.2187 204.244 12.9375 204.034 12.6705C203.83 12.4034 203.551 12.1847 203.199 12.0142C202.847 11.8437 202.406 11.7585 201.878 11.7585C201.156 11.7585 200.554 11.9205 200.071 12.2443C199.588 12.5625 199.347 12.9744 199.347 13.4801C199.347 13.9176 199.509 14.2699 199.832 14.5369C200.156 14.804 200.679 15.0227 201.401 15.1932L203.48 15.6705C204.685 15.9489 205.582 16.3778 206.173 16.9574C206.764 17.5369 207.06 18.2898 207.06 19.2159C207.06 20 206.832 20.6989 206.378 21.3125C205.929 21.9205 205.301 22.3977 204.494 22.7443C203.693 23.0909 202.764 23.2642 201.707 23.2642C200.241 23.2642 199.045 22.9517 198.119 22.3267C197.193 21.696 196.625 20.8011 196.415 19.642L198.878 19.267C199.031 19.9091 199.347 20.3949 199.824 20.7244C200.301 21.0483 200.923 21.2102 201.69 21.2102C202.526 21.2102 203.193 21.0369 203.693 20.6903C204.193 20.3381 204.443 19.9091 204.443 19.4034C204.443 18.9943 204.29 18.6506 203.983 18.3722C203.682 18.0937 203.219 17.8835 202.594 17.7415L200.378 17.2557C199.156 16.9773 198.253 16.5341 197.668 15.9261C197.088 15.3182 196.798 14.5483 196.798 13.6165C196.798 12.8437 197.014 12.1676 197.446 11.5881C197.878 11.0085 198.474 10.5568 199.236 10.233C199.997 9.90341 200.869 9.73864 201.852 9.73864C203.267 9.73864 204.381 10.0455 205.193 10.6591C206.006 11.267 206.543 12.0824 206.804 13.1051ZM216.213 27.9091V9.90909H218.702V12.0312H218.915C219.063 11.7585 219.276 11.4432 219.554 11.0852C219.832 10.7273 220.219 10.4148 220.713 10.1477C221.207 9.875 221.861 9.73864 222.673 9.73864C223.73 9.73864 224.673 10.0057 225.503 10.5398C226.332 11.0739 226.983 11.8437 227.455 12.8494C227.932 13.8551 228.17 15.0653 228.17 16.4801C228.17 17.8949 227.935 19.108 227.463 20.1193C226.991 21.125 226.344 21.9006 225.52 22.446C224.696 22.9858 223.756 23.2557 222.699 23.2557C221.903 23.2557 221.253 23.1222 220.747 22.8551C220.247 22.5881 219.855 22.2756 219.571 21.9176C219.287 21.5597 219.068 21.2415 218.915 20.9631H218.761V27.9091H216.213ZM218.71 16.4545C218.71 17.375 218.844 18.1818 219.111 18.875C219.378 19.5682 219.764 20.1108 220.27 20.5028C220.776 20.8892 221.395 21.0824 222.128 21.0824C222.889 21.0824 223.526 20.8807 224.037 20.4773C224.548 20.0682 224.935 19.5142 225.196 18.8153C225.463 18.1165 225.597 17.3295 225.597 16.4545C225.597 15.5909 225.466 14.8153 225.205 14.1278C224.949 13.4403 224.563 12.8977 224.045 12.5C223.534 12.1023 222.895 11.9034 222.128 11.9034C221.389 11.9034 220.764 12.0937 220.253 12.4744C219.747 12.8551 219.364 13.3864 219.102 14.0682C218.841 14.75 218.71 15.5455 218.71 16.4545ZM234.835 23.2898C234.006 23.2898 233.256 23.1364 232.585 22.8295C231.915 22.517 231.384 22.0653 230.991 21.4744C230.605 20.8835 230.412 20.1591 230.412 19.3011C230.412 18.5625 230.554 17.9545 230.838 17.4773C231.122 17 231.506 16.6222 231.989 16.3438C232.472 16.0653 233.011 15.8551 233.608 15.7131C234.205 15.571 234.813 15.4631 235.432 15.3892C236.216 15.2983 236.852 15.2244 237.341 15.1676C237.83 15.1051 238.185 15.0057 238.406 14.8693C238.628 14.733 238.739 14.5114 238.739 14.2045V14.1449C238.739 13.4006 238.528 12.8239 238.108 12.4148C237.693 12.0057 237.074 11.8011 236.25 11.8011C235.392 11.8011 234.716 11.9915 234.222 12.3722C233.733 12.7472 233.395 13.1648 233.207 13.625L230.812 13.0795C231.097 12.2841 231.511 11.642 232.057 11.1534C232.608 10.6591 233.241 10.3011 233.957 10.0795C234.673 9.85227 235.426 9.73864 236.216 9.73864C236.739 9.73864 237.293 9.80114 237.878 9.92614C238.469 10.0455 239.02 10.267 239.531 10.5909C240.048 10.9148 240.472 11.3778 240.801 11.9801C241.131 12.5767 241.295 13.3523 241.295 14.3068V23H238.807V21.2102H238.705C238.54 21.5398 238.293 21.8636 237.963 22.1818C237.634 22.5 237.21 22.7642 236.693 22.9744C236.176 23.1847 235.557 23.2898 234.835 23.2898ZM235.389 21.2443C236.094 21.2443 236.696 21.1051 237.196 20.8267C237.702 20.5483 238.085 20.1847 238.347 19.7358C238.614 19.2812 238.747 18.7955 238.747 18.2784V16.5909C238.656 16.6818 238.48 16.767 238.219 16.8466C237.963 16.9205 237.67 16.9858 237.341 17.0426C237.011 17.0937 236.69 17.142 236.378 17.1875C236.065 17.2273 235.804 17.2614 235.594 17.2898C235.099 17.3523 234.648 17.4574 234.239 17.6051C233.835 17.7528 233.511 17.9659 233.267 18.2443C233.028 18.517 232.909 18.8807 232.909 19.3352C232.909 19.9659 233.142 20.4432 233.608 20.767C234.074 21.0852 234.668 21.2443 235.389 21.2443ZM250.178 28.1818C249.138 28.1818 248.244 28.0455 247.494 27.7727C246.749 27.5 246.141 27.1392 245.67 26.6903C245.198 26.2415 244.846 25.75 244.613 25.2159L246.803 24.3125C246.957 24.5625 247.161 24.8267 247.417 25.1051C247.678 25.3892 248.031 25.6307 248.474 25.8295C248.923 26.0284 249.499 26.1278 250.204 26.1278C251.17 26.1278 251.968 25.892 252.599 25.4205C253.229 24.9545 253.545 24.2102 253.545 23.1875V20.6136H253.383C253.229 20.892 253.008 21.2017 252.718 21.5426C252.434 21.8835 252.042 22.179 251.542 22.429C251.042 22.679 250.391 22.804 249.59 22.804C248.556 22.804 247.624 22.5625 246.795 22.0795C245.971 21.5909 245.317 20.8722 244.835 19.9233C244.357 18.9687 244.119 17.7955 244.119 16.4034C244.119 15.0114 244.354 13.8182 244.826 12.8239C245.303 11.8295 245.957 11.0682 246.786 10.5398C247.616 10.0057 248.556 9.73864 249.607 9.73864C250.42 9.73864 251.076 9.875 251.576 10.1477C252.076 10.4148 252.465 10.7273 252.744 11.0852C253.028 11.4432 253.246 11.7585 253.4 12.0312H253.587V9.90909H256.085V23.2898C256.085 24.4148 255.823 25.3381 255.3 26.0597C254.778 26.7813 254.07 27.3153 253.178 27.6619C252.292 28.0085 251.292 28.1818 250.178 28.1818ZM250.153 20.6903C250.886 20.6903 251.505 20.5199 252.011 20.179C252.522 19.8324 252.908 19.3381 253.17 18.696C253.437 18.0483 253.57 17.2727 253.57 16.3693C253.57 15.4886 253.44 14.7131 253.178 14.0426C252.917 13.3722 252.533 12.8494 252.028 12.4744C251.522 12.0937 250.897 11.9034 250.153 11.9034C249.386 11.9034 248.746 12.1023 248.235 12.5C247.724 12.892 247.337 13.4261 247.076 14.1023C246.82 14.7784 246.692 15.5341 246.692 16.3693C246.692 17.2273 246.823 17.9801 247.085 18.6278C247.346 19.2756 247.732 19.7812 248.244 20.1449C248.761 20.5085 249.397 20.6903 250.153 20.6903ZM265.144 23.2642C263.854 23.2642 262.744 22.9886 261.812 22.4375C260.886 21.8807 260.17 21.0994 259.664 20.0938C259.164 19.0824 258.914 17.8977 258.914 16.5398C258.914 15.1989 259.164 14.017 259.664 12.9943C260.17 11.9716 260.874 11.1733 261.778 10.5994C262.687 10.0256 263.749 9.73864 264.965 9.73864C265.704 9.73864 266.42 9.8608 267.113 10.1051C267.806 10.3494 268.428 10.733 268.979 11.2557C269.531 11.7784 269.965 12.4574 270.283 13.2926C270.602 14.1222 270.761 15.1307 270.761 16.3182V17.2216H260.354V15.3125H268.263C268.263 14.642 268.127 14.0483 267.854 13.5312C267.582 13.0085 267.198 12.5966 266.704 12.2955C266.215 11.9943 265.641 11.8438 264.982 11.8438C264.266 11.8438 263.641 12.0199 263.107 12.3722C262.579 12.7187 262.17 13.1733 261.88 13.7358C261.596 14.2926 261.454 14.8977 261.454 15.5511V17.0426C261.454 17.9176 261.607 18.6619 261.914 19.2756C262.227 19.8892 262.661 20.358 263.218 20.6818C263.775 21 264.425 21.1591 265.17 21.1591C265.653 21.1591 266.093 21.0909 266.491 20.9545C266.888 20.8125 267.232 20.6023 267.522 20.3239C267.812 20.0455 268.033 19.7017 268.187 19.2926L270.599 19.7273C270.406 20.4375 270.059 21.0597 269.559 21.5938C269.065 22.1222 268.442 22.5341 267.692 22.8295C266.948 23.1193 266.099 23.2642 265.144 23.2642Z" fill="#C50000"/>
<path d="M280 24.4614L288.077 14.8234L280 5.99989" stroke="#FF8383" stroke-width="3" stroke-linecap="round"/>
<path d="M290.961 24.4614L299.038 14.8234L290.961 5.99989" stroke="#FF2C2C" stroke-width="3" stroke-linecap="round"/>
<path d="M301.923 24.4614L310 14.8234L301.923 5.99989" stroke="#C50000" stroke-width="3" stroke-linecap="round"/>
</svg>
