<svg width="91" height="360" viewBox="0 0 91 360" fill="none" xmlns="http://www.w3.org/2000/svg">
<path d="M50.664 13.5944C50.664 11.1624 51.064 8.98639 51.864 7.06639C52.696 5.17839 53.816 3.67439 55.224 2.55439C56.664 1.46639 58.28 0.858387 60.072 0.730387V9.85039C59.208 9.97839 58.536 10.3784 58.056 11.0504C57.576 11.7224 57.336 12.5544 57.336 13.5464C57.336 14.3144 57.496 14.9224 57.816 15.3704C58.136 15.8184 58.552 16.0424 59.064 16.0424C59.736 16.0424 60.232 15.6744 60.552 14.9384C60.872 14.2024 61.224 12.9864 61.608 11.2904C61.992 9.37039 62.424 7.77039 62.904 6.49039C63.384 5.21039 64.168 4.09039 65.256 3.13039C66.344 2.20239 67.816 1.73839 69.672 1.73839C71.272 1.73839 72.712 2.17039 73.992 3.03439C75.304 3.89839 76.344 5.16239 77.112 6.82639C77.88 8.52239 78.264 10.5544 78.264 12.9224C78.264 16.4424 77.4 19.2104 75.672 21.2264C73.944 23.2424 71.672 24.4104 68.856 24.7304V16.2344C69.72 16.0744 70.376 15.6904 70.824 15.0824C71.304 14.5064 71.544 13.7224 71.544 12.7304C71.544 11.9624 71.4 11.3704 71.112 10.9544C70.824 10.5704 70.424 10.3784 69.912 10.3784C69.272 10.3784 68.776 10.7464 68.424 11.4824C68.104 12.2184 67.768 13.4024 67.416 15.0344C67 16.9864 66.536 18.6024 66.024 19.8824C65.512 21.1944 64.68 22.3304 63.528 23.2904C62.408 24.2824 60.872 24.7784 58.92 24.7784C57.352 24.7784 55.944 24.3144 54.696 23.3864C53.448 22.4904 52.456 21.1944 51.72 19.4984C51.016 17.8344 50.664 15.8664 50.664 13.5944ZM74.184 41.2116C75.432 41.9476 76.424 42.9876 77.16 44.3316C77.896 45.6756 78.264 47.2596 78.264 49.0836C78.264 51.2276 77.704 53.1636 76.584 54.8916C75.464 56.6516 73.864 58.0276 71.784 59.0196C69.704 60.0436 67.272 60.5556 64.488 60.5556C61.704 60.5556 59.256 60.0436 57.144 59.0196C55.064 58.0276 53.464 56.6516 52.344 54.8916C51.224 53.1636 50.664 51.2276 50.664 49.0836C50.664 47.2596 51.032 45.6756 51.768 44.3316C52.504 43.0196 53.496 41.9796 54.744 41.2116H38.136V31.8036H77.928V41.2116H74.184ZM64.488 51.0036C66.248 51.0036 67.608 50.5236 68.568 49.5636C69.56 48.6356 70.056 47.4836 70.056 46.1076C70.056 44.7316 69.56 43.5636 68.568 42.6036C67.576 41.6756 66.216 41.2116 64.488 41.2116C62.728 41.2116 61.352 41.6756 60.36 42.6036C59.368 43.5636 58.872 44.7316 58.872 46.1076C58.872 47.4836 59.368 48.6356 60.36 49.5636C61.384 50.5236 62.76 51.0036 64.488 51.0036ZM80.424 71.5806C80.424 69.9166 80.872 68.5726 81.768 67.5486C82.696 66.5566 83.848 66.0606 85.224 66.0606C86.632 66.0606 87.8 66.5566 88.728 67.5486C89.656 68.5726 90.12 69.9166 90.12 71.5806C90.12 73.2126 89.656 74.5246 88.728 75.5166C87.8 76.5406 86.632 77.0526 85.224 77.0526C83.848 77.0526 82.696 76.5406 81.768 75.5166C80.872 74.5246 80.424 73.2126 80.424 71.5806ZM77.928 76.2366H51V66.8286H77.928V76.2366ZM78.168 101.61C78.168 104.714 77.128 107.178 75.048 109.002C73 110.826 70.216 111.738 66.696 111.738H51V102.33H65.448C66.984 102.33 68.184 101.93 69.048 101.13C69.944 100.33 70.392 99.2583 70.392 97.9143C70.392 96.5063 69.944 95.4023 69.048 94.6023C68.184 93.8023 66.984 93.4023 65.448 93.4023H51V83.9943H77.928V93.4023H74.088C75.304 94.2343 76.28 95.3543 77.016 96.7623C77.784 98.1703 78.168 99.7863 78.168 101.61ZM50.664 142.36C50.664 139.928 51.064 137.752 51.864 135.832C52.696 133.944 53.816 132.44 55.224 131.32C56.664 130.232 58.28 129.624 60.072 129.496V138.616C59.208 138.744 58.536 139.144 58.056 139.816C57.576 140.488 57.336 141.32 57.336 142.312C57.336 143.08 57.496 143.688 57.816 144.136C58.136 144.584 58.552 144.808 59.064 144.808C59.736 144.808 60.232 144.44 60.552 143.704C60.872 142.968 61.224 141.752 61.608 140.056C61.992 138.136 62.424 136.536 62.904 135.256C63.384 133.976 64.168 132.856 65.256 131.896C66.344 130.968 67.816 130.504 69.672 130.504C71.272 130.504 72.712 130.936 73.992 131.8C75.304 132.664 76.344 133.928 77.112 135.592C77.88 137.288 78.264 139.32 78.264 141.688C78.264 145.208 77.4 147.976 75.672 149.992C73.944 152.008 71.672 153.176 68.856 153.496V145C69.72 144.84 70.376 144.456 70.824 143.848C71.304 143.272 71.544 142.488 71.544 141.496C71.544 140.728 71.4 140.136 71.112 139.72C70.824 139.336 70.424 139.144 69.912 139.144C69.272 139.144 68.776 139.512 68.424 140.248C68.104 140.984 67.768 142.168 67.416 143.8C67 145.752 66.536 147.368 66.024 148.648C65.512 149.96 64.68 151.096 63.528 152.056C62.408 153.048 60.872 153.544 58.92 153.544C57.352 153.544 55.944 153.08 54.696 152.152C53.448 151.256 52.456 149.96 51.72 148.264C51.016 146.6 50.664 144.632 50.664 142.36ZM64.488 159.033C67.272 159.033 69.704 159.609 71.784 160.761C73.864 161.913 75.464 163.513 76.584 165.561C77.704 167.641 78.264 170.009 78.264 172.665C78.264 176.089 77.32 178.969 75.432 181.305C73.576 183.641 70.968 185.145 67.608 185.817V175.833C69.368 175.257 70.248 174.137 70.248 172.473C70.248 171.289 69.752 170.345 68.76 169.641C67.8 168.969 66.376 168.633 64.488 168.633C62.6 168.633 61.16 168.969 60.168 169.641C59.176 170.345 58.68 171.289 58.68 172.473C58.68 174.169 59.56 175.289 61.32 175.833V185.817C57.992 185.145 55.384 183.641 53.496 181.305C51.608 178.969 50.664 176.089 50.664 172.665C50.664 170.009 51.224 167.641 52.344 165.561C53.464 163.513 55.064 161.913 57.144 160.761C59.224 159.609 61.672 159.033 64.488 159.033ZM50.664 204.654C50.664 201.966 51.224 199.55 52.344 197.406C53.464 195.294 55.064 193.63 57.144 192.414C59.224 191.198 61.672 190.59 64.488 190.59C67.272 190.59 69.704 191.198 71.784 192.414C73.864 193.662 75.464 195.342 76.584 197.454C77.704 199.598 78.264 202.014 78.264 204.702C78.264 207.39 77.704 209.79 76.584 211.902C75.464 214.046 73.864 215.726 71.784 216.942C69.704 218.19 67.272 218.814 64.488 218.814C61.704 218.814 59.256 218.19 57.144 216.942C55.064 215.726 53.464 214.046 52.344 211.902C51.224 209.758 50.664 207.342 50.664 204.654ZM58.824 204.654C58.824 205.966 59.304 207.054 60.264 207.918C61.256 208.814 62.664 209.262 64.488 209.262C66.312 209.262 67.704 208.814 68.664 207.918C69.624 207.054 70.104 205.982 70.104 204.702C70.104 203.422 69.624 202.35 68.664 201.486C67.704 200.622 66.312 200.19 64.488 200.19C62.632 200.19 61.224 200.606 60.264 201.438C59.304 202.27 58.824 203.342 58.824 204.654ZM50.664 237.569C50.664 234.881 51.224 232.465 52.344 230.321C53.464 228.209 55.064 226.545 57.144 225.329C59.224 224.113 61.672 223.505 64.488 223.505C67.272 223.505 69.704 224.113 71.784 225.329C73.864 226.577 75.464 228.257 76.584 230.369C77.704 232.513 78.264 234.929 78.264 237.617C78.264 240.305 77.704 242.705 76.584 244.817C75.464 246.961 73.864 248.641 71.784 249.857C69.704 251.105 67.272 251.729 64.488 251.729C61.704 251.729 59.256 251.105 57.144 249.857C55.064 248.641 53.464 246.961 52.344 244.817C51.224 242.673 50.664 240.257 50.664 237.569ZM58.824 237.569C58.824 238.881 59.304 239.969 60.264 240.833C61.256 241.729 62.664 242.177 64.488 242.177C66.312 242.177 67.704 241.729 68.664 240.833C69.624 239.969 70.104 238.897 70.104 237.617C70.104 236.337 69.624 235.265 68.664 234.401C67.704 233.537 66.312 233.105 64.488 233.105C62.632 233.105 61.224 233.521 60.264 234.353C59.304 235.185 58.824 236.257 58.824 237.569ZM59.016 273.845H51V269.765C51 262.885 54.408 259.445 61.224 259.445H70.104V256.133H77.928V259.445H84.456V268.901H77.928V273.797H70.104V268.901H61.08C60.344 268.901 59.816 269.061 59.496 269.381C59.176 269.733 59.016 270.309 59.016 271.109V273.845ZM64.776 306.288C64.04 306.288 63.304 306.24 62.568 306.144V288.336C61.096 288.432 59.992 288.832 59.256 289.536C58.552 290.272 58.2 291.2 58.2 292.32C58.2 293.888 58.904 295.008 60.312 295.68V305.712C58.456 305.296 56.792 304.48 55.32 303.264C53.88 302.08 52.744 300.576 51.912 298.752C51.08 296.928 50.664 294.912 50.664 292.704C50.664 290.048 51.224 287.68 52.344 285.6C53.464 283.552 55.064 281.936 57.144 280.752C59.224 279.6 61.672 279.024 64.488 279.024C67.304 279.024 69.736 279.6 71.784 280.752C73.864 281.904 75.464 283.504 76.584 285.552C77.704 287.632 78.264 290.016 78.264 292.704C78.264 295.36 77.72 297.712 76.632 299.76C75.544 301.808 73.976 303.408 71.928 304.56C69.912 305.712 67.528 306.288 64.776 306.288ZM67.128 296.688C68.28 296.688 69.176 296.304 69.816 295.536C70.488 294.768 70.824 293.808 70.824 292.656C70.824 291.504 70.504 290.56 69.864 289.824C69.256 289.088 68.344 288.608 67.128 288.384V296.688ZM73.176 321.946C74.712 323.002 75.928 324.282 76.824 325.786C77.72 327.29 78.168 328.906 78.168 330.634H68.136V327.994C68.136 325.946 67.736 324.426 66.936 323.434C66.136 322.442 64.744 321.946 62.76 321.946H51V312.538H77.928V321.946H73.176ZM50.664 347.879C50.664 345.447 51.064 343.271 51.864 341.351C52.696 339.463 53.816 337.959 55.224 336.839C56.664 335.751 58.28 335.143 60.072 335.015V344.135C59.208 344.263 58.536 344.663 58.056 345.335C57.576 346.007 57.336 346.839 57.336 347.831C57.336 348.599 57.496 349.207 57.816 349.655C58.136 350.103 58.552 350.327 59.064 350.327C59.736 350.327 60.232 349.959 60.552 349.223C60.872 348.487 61.224 347.271 61.608 345.575C61.992 343.655 62.424 342.055 62.904 340.775C63.384 339.495 64.168 338.375 65.256 337.415C66.344 336.487 67.816 336.023 69.672 336.023C71.272 336.023 72.712 336.455 73.992 337.319C75.304 338.183 76.344 339.447 77.112 341.111C77.88 342.807 78.264 344.839 78.264 347.207C78.264 350.727 77.4 353.495 75.672 355.511C73.944 357.527 71.672 358.695 68.856 359.015V350.519C69.72 350.359 70.376 349.975 70.824 349.367C71.304 348.791 71.544 348.007 71.544 347.015C71.544 346.247 71.4 345.655 71.112 345.239C70.824 344.855 70.424 344.663 69.912 344.663C69.272 344.663 68.776 345.031 68.424 345.767C68.104 346.503 67.768 347.687 67.416 349.319C67 351.271 66.536 352.887 66.024 354.167C65.512 355.479 64.68 356.615 63.528 357.575C62.408 358.567 60.872 359.063 58.92 359.063C57.352 359.063 55.944 358.599 54.696 357.671C53.448 356.775 52.456 355.479 51.72 353.783C51.016 352.119 50.664 350.151 50.664 347.879Z" fill="#FF6914"/>
<path d="M9.896 77.1028C11.6667 77.1028 13.2347 77.4654 14.6 78.1908C15.9653 78.9374 17.0213 79.9401 17.768 81.1988C18.536 82.4788 18.92 83.8974 18.92 85.4548C18.92 86.6068 18.664 87.7374 18.152 88.8468C17.6613 89.9774 17 90.8734 16.168 91.5348H24.68V95.2148H1V91.5348H3.656C2.80267 90.9374 2.09867 90.1054 1.544 89.0388C0.989333 87.9934 0.712 86.7881 0.712 85.4228C0.712 83.8868 1.096 82.4788 1.864 81.1988C2.65333 79.9401 3.74133 78.9374 5.128 78.1908C6.536 77.4654 8.12533 77.1028 9.896 77.1028ZM9.832 91.5348C11.048 91.5348 12.104 91.2788 13 90.7668C13.896 90.2761 14.5787 89.6254 15.048 88.8148C15.5173 88.0041 15.752 87.1294 15.752 86.1908C15.752 85.2521 15.5173 84.3774 15.048 83.5668C14.6 82.7561 13.928 82.0948 13.032 81.5828C12.1573 81.0921 11.112 80.8468 9.896 80.8468C8.68 80.8468 7.61333 81.0921 6.696 81.5828C5.77867 82.0948 5.07467 82.7561 4.584 83.5668C4.11467 84.3988 3.88 85.2734 3.88 86.1908C3.88 87.1294 4.11467 88.0041 4.584 88.8148C5.05333 89.6254 5.736 90.2761 6.632 90.7668C7.54933 91.2788 8.616 91.5348 9.832 91.5348ZM9.896 100.39C11.6667 100.39 13.2347 100.753 14.6 101.478C15.9653 102.225 17.0213 103.228 17.768 104.486C18.536 105.766 18.92 107.174 18.92 108.71C18.92 110.097 18.6427 111.302 18.088 112.326C17.5547 113.372 16.8827 114.204 16.072 114.822H18.632L18.632 118.502H1L1 114.822H3.624C2.792 114.204 2.09867 113.361 1.544 112.294C0.989333 111.228 0.712 110.012 0.712 108.646C0.712 107.132 1.096 105.745 1.864 104.486C2.65333 103.228 3.74133 102.225 5.128 101.478C6.536 100.753 8.12533 100.39 9.896 100.39ZM9.832 114.822C11.048 114.822 12.104 114.566 13 114.054C13.896 113.564 14.5787 112.913 15.048 112.102C15.5173 111.292 15.752 110.417 15.752 109.478C15.752 108.54 15.5173 107.665 15.048 106.854C14.6 106.044 13.928 105.382 13.032 104.87C12.1573 104.38 11.112 104.134 9.896 104.134C8.68 104.134 7.61333 104.38 6.696 104.87C5.77867 105.382 5.07467 106.044 4.584 106.854C4.11467 107.686 3.88 108.561 3.88 109.478C3.88 110.417 4.11467 111.292 4.584 112.102C5.05333 112.913 5.736 113.564 6.632 114.054C7.54933 114.566 8.616 114.822 9.832 114.822ZM15.656 129.15H5.896C5.23467 129.15 4.75467 129.299 4.456 129.598C4.17867 129.918 4.04 130.451 4.04 131.198V133.438H1V130.558C1 128.915 1.384 127.656 2.152 126.782C2.92 125.907 4.168 125.47 5.896 125.47H15.656V123.39H18.632V125.47H23.016V129.15H18.632V133.438H15.656V129.15ZM9.896 137.184C11.6667 137.184 13.2347 137.547 14.6 138.272C15.9653 139.019 17.0213 140.021 17.768 141.28C18.536 142.56 18.92 143.968 18.92 145.504C18.92 146.891 18.6427 148.096 18.088 149.12C17.5547 150.165 16.8827 150.997 16.072 151.616H18.632V155.296H1V151.616H3.624C2.792 150.997 2.09867 150.155 1.544 149.088C0.989333 148.021 0.712 146.805 0.712 145.44C0.712 143.925 1.096 142.539 1.864 141.28C2.65333 140.021 3.74133 139.019 5.128 138.272C6.536 137.547 8.12533 137.184 9.896 137.184ZM9.832 151.616C11.048 151.616 12.104 151.36 13 150.848C13.896 150.357 14.5787 149.707 15.048 148.896C15.5173 148.085 15.752 147.211 15.752 146.272C15.752 145.333 15.5173 144.459 15.048 143.648C14.6 142.837 13.928 142.176 13.032 141.664C12.1573 141.173 11.112 140.928 9.896 140.928C8.68 140.928 7.61333 141.173 6.696 141.664C5.77867 142.176 5.07467 142.837 4.584 143.648C4.11467 144.48 3.88 145.355 3.88 146.272C3.88 147.211 4.11467 148.085 4.584 148.896C5.05333 149.707 5.736 150.357 6.632 150.848C7.54933 151.36 8.616 151.616 9.832 151.616ZM9.896 170.384C11.6667 170.384 13.2347 170.747 14.6 171.472C15.9653 172.219 17.0213 173.221 17.768 174.48C18.536 175.76 18.92 177.179 18.92 178.736C18.92 179.888 18.664 181.019 18.152 182.128C17.6613 183.259 17 184.155 16.168 184.816H24.68V188.496H1V184.816H3.656C2.80267 184.219 2.09867 183.387 1.544 182.32C0.989333 181.275 0.712 180.069 0.712 178.704C0.712 177.168 1.096 175.76 1.864 174.48C2.65333 173.221 3.74133 172.219 5.128 171.472C6.536 170.747 8.12533 170.384 9.896 170.384ZM9.832 184.816C11.048 184.816 12.104 184.56 13 184.048C13.896 183.557 14.5787 182.907 15.048 182.096C15.5173 181.285 15.752 180.411 15.752 179.472C15.752 178.533 15.5173 177.659 15.048 176.848C14.6 176.037 13.928 175.376 13.032 174.864C12.1573 174.373 11.112 174.128 9.896 174.128C8.68 174.128 7.61333 174.373 6.696 174.864C5.77867 175.376 5.07467 176.037 4.584 176.848C4.11467 177.68 3.88 178.555 3.88 179.472C3.88 180.411 4.11467 181.285 4.584 182.096C5.05333 182.907 5.736 183.557 6.632 184.048C7.54933 184.56 8.616 184.816 9.832 184.816ZM9.896 193.672C11.6667 193.672 13.2347 194.034 14.6 194.76C15.9653 195.506 17.0213 196.509 17.768 197.768C18.536 199.048 18.92 200.456 18.92 201.992C18.92 203.378 18.6427 204.584 18.088 205.608C17.5547 206.653 16.8827 207.485 16.072 208.104H18.632V211.784H1V208.104H3.624C2.792 207.485 2.09867 206.642 1.544 205.576C0.989333 204.509 0.712 203.293 0.712 201.928C0.712 200.413 1.096 199.026 1.864 197.768C2.65333 196.509 3.74133 195.506 5.128 194.76C6.536 194.034 8.12533 193.672 9.896 193.672ZM9.832 208.104C11.048 208.104 12.104 207.848 13 207.336C13.896 206.845 14.5787 206.194 15.048 205.384C15.5173 204.573 15.752 203.698 15.752 202.76C15.752 201.821 15.5173 200.946 15.048 200.136C14.6 199.325 13.928 198.664 13.032 198.152C12.1573 197.661 11.112 197.416 9.896 197.416C8.68 197.416 7.61333 197.661 6.696 198.152C5.77867 198.664 5.07467 199.325 4.584 200.136C4.11467 200.968 3.88 201.842 3.88 202.76C3.88 203.698 4.11467 204.573 4.584 205.384C5.05333 206.194 5.736 206.845 6.632 207.336C7.54933 207.848 8.616 208.104 9.832 208.104ZM0.712 224.575C0.712 223.188 0.957333 221.94 1.448 220.831C1.96 219.743 2.64267 218.879 3.496 218.239C4.37067 217.599 5.34133 217.258 6.408 217.215V220.991C5.66133 221.055 5.032 221.407 4.52 222.047C4.02933 222.708 3.784 223.53 3.784 224.511C3.784 225.535 3.976 226.324 4.36 226.879C4.76533 227.455 5.27733 227.743 5.896 227.743C6.55733 227.743 7.048 227.423 7.368 226.783C7.688 226.164 8.04 225.172 8.424 223.807C8.78667 222.484 9.13867 221.407 9.48 220.575C9.82133 219.743 10.344 219.018 11.048 218.399C11.752 217.802 12.68 217.503 13.832 217.503C14.7707 217.503 15.624 217.78 16.392 218.335C17.1813 218.89 17.8 219.679 18.248 220.703C18.696 221.748 18.92 222.943 18.92 224.287C18.92 226.292 18.408 227.903 17.384 229.119C16.3813 230.356 15.0053 231.018 13.256 231.103V227.455C14.0453 227.391 14.6747 227.071 15.144 226.495C15.6133 225.919 15.848 225.14 15.848 224.159C15.848 223.199 15.6667 222.463 15.304 221.951C14.9413 221.439 14.4613 221.183 13.864 221.183C13.3947 221.183 13 221.354 12.68 221.695C12.36 222.036 12.104 222.452 11.912 222.943C11.7413 223.434 11.5173 224.159 11.24 225.119C10.8987 226.399 10.5467 227.444 10.184 228.255C9.84267 229.087 9.33067 229.802 8.648 230.399C7.96533 230.996 7.05867 231.306 5.928 231.327C4.92533 231.327 4.02933 231.05 3.24 230.495C2.45067 229.94 1.832 229.151 1.384 228.127C0.936 227.124 0.712 225.94 0.712 224.575ZM18.92 245.989C18.92 247.333 18.632 248.527 18.056 249.573C17.48 250.639 16.6267 251.471 15.496 252.069C14.3653 252.687 13 252.997 11.4 252.997H1V249.381H10.856C12.4347 249.381 13.64 248.986 14.472 248.197C15.3253 247.407 15.752 246.33 15.752 244.965C15.752 243.599 15.3253 242.511 14.472 241.701C13.64 240.911 12.4347 240.517 10.856 240.517H1V236.869H24.68V240.517H16.584C17.3307 241.135 17.9067 241.914 18.312 242.853C18.7173 243.813 18.92 244.858 18.92 245.989ZM16.008 262.898C16.8613 263.517 17.5547 264.359 18.088 265.426C18.6427 266.514 18.92 267.719 18.92 269.042C18.92 270.599 18.5467 272.007 17.8 273.266C17.0533 274.525 15.9867 275.517 14.6 276.242C13.2347 276.967 11.6667 277.33 9.896 277.33C8.12533 277.33 6.536 276.967 5.128 276.242C3.74133 275.517 2.65333 274.514 1.864 273.234C1.096 271.975 0.712 270.578 0.712 269.042C0.712 267.677 0.978667 266.461 1.512 265.394C2.04533 264.349 2.728 263.517 3.56 262.898H1V259.25H24.68V262.898H16.008ZM9.896 273.618C11.112 273.618 12.1573 273.362 13.032 272.85C13.928 272.359 14.6 271.698 15.048 270.866C15.5173 270.055 15.752 269.181 15.752 268.242C15.752 267.325 15.5173 266.45 15.048 265.618C14.5787 264.807 13.896 264.146 13 263.634C12.104 263.143 11.048 262.898 9.832 262.898C8.616 262.898 7.54933 263.143 6.632 263.634C5.736 264.146 5.05333 264.807 4.584 265.618C4.11467 266.45 3.88 267.325 3.88 268.242C3.88 269.181 4.11467 270.055 4.584 270.866C5.07467 271.698 5.77867 272.359 6.696 272.85C7.61333 273.362 8.68 273.618 9.896 273.618ZM0.712 290.186C0.712 288.522 1.08533 287.018 1.832 285.674C2.6 284.33 3.66667 283.274 5.032 282.506C6.41867 281.738 8.01867 281.354 9.832 281.354C11.624 281.354 13.2133 281.748 14.6 282.538C15.9867 283.327 17.0533 284.404 17.8 285.77C18.5467 287.135 18.92 288.66 18.92 290.346C18.92 292.031 18.5467 293.556 17.8 294.922C17.0533 296.287 15.9867 297.364 14.6 298.154C13.2133 298.943 11.624 299.338 9.832 299.338C8.04 299.338 6.45067 298.932 5.064 298.122C3.67733 297.311 2.6 296.202 1.832 294.794C1.08533 293.407 0.712 291.871 0.712 290.186ZM3.88 290.186C3.88 291.124 4.104 291.999 4.552 292.81C5 293.642 5.672 294.314 6.568 294.826C7.464 295.338 8.552 295.594 9.832 295.594C11.112 295.594 12.1893 295.348 13.064 294.858C13.96 294.367 14.632 293.716 15.08 292.906C15.528 292.095 15.752 291.22 15.752 290.282C15.752 289.343 15.528 288.468 15.08 287.658C14.632 286.868 13.96 286.239 13.064 285.77C12.1893 285.3 11.112 285.066 9.832 285.066C7.93333 285.066 6.46133 285.546 5.416 286.506C4.392 287.487 3.88 288.714 3.88 290.186ZM9.896 303.328C11.6667 303.328 13.2347 303.69 14.6 304.416C15.9653 305.162 17.0213 306.165 17.768 307.424C18.536 308.704 18.92 310.112 18.92 311.648C18.92 313.034 18.6427 314.24 18.088 315.264C17.5547 316.309 16.8827 317.141 16.072 317.76H18.632V321.44H1V317.76H3.624C2.792 317.141 2.09867 316.298 1.544 315.232C0.989333 314.165 0.712 312.949 0.712 311.584C0.712 310.069 1.096 308.682 1.864 307.424C2.65333 306.165 3.74133 305.162 5.128 304.416C6.536 303.69 8.12533 303.328 9.896 303.328ZM9.832 317.76C11.048 317.76 12.104 317.504 13 316.992C13.896 316.501 14.5787 315.85 15.048 315.04C15.5173 314.229 15.752 313.354 15.752 312.416C15.752 311.477 15.5173 310.602 15.048 309.792C14.6 308.981 13.928 308.32 13.032 307.808C12.1573 307.317 11.112 307.072 9.896 307.072C8.68 307.072 7.61333 307.317 6.696 307.808C5.77867 308.32 5.07467 308.981 4.584 309.792C4.11467 310.624 3.88 311.498 3.88 312.416C3.88 313.354 4.11467 314.229 4.584 315.04C5.05333 315.85 5.736 316.501 6.632 316.992C7.54933 317.504 8.616 317.76 9.832 317.76ZM16.072 331.479C16.968 332.013 17.6613 332.717 18.152 333.591C18.664 334.487 18.92 335.543 18.92 336.759H15.144V335.831C15.144 334.402 14.7813 333.314 14.056 332.567C13.3307 331.842 12.072 331.479 10.28 331.479H1V327.831H18.632V331.479H16.072ZM9.896 340.497C11.6667 340.497 13.2347 340.859 14.6 341.585C15.9653 342.331 17.0213 343.334 17.768 344.593C18.536 345.873 18.92 347.291 18.92 348.849C18.92 350.001 18.664 351.131 18.152 352.241C17.6613 353.371 17 354.267 16.168 354.929H24.68V358.609H1V354.929H3.656C2.80267 354.331 2.09867 353.499 1.544 352.433C0.989333 351.387 0.712 350.182 0.712 348.817C0.712 347.281 1.096 345.873 1.864 344.593C2.65333 343.334 3.74133 342.331 5.128 341.585C6.536 340.859 8.12533 340.497 9.896 340.497ZM9.832 354.929C11.048 354.929 12.104 354.673 13 354.161C13.896 353.67 14.5787 353.019 15.048 352.209C15.5173 351.398 15.752 350.523 15.752 349.585C15.752 348.646 15.5173 347.771 15.048 346.961C14.6 346.15 13.928 345.489 13.032 344.977C12.1573 344.486 11.112 344.241 9.896 344.241C8.68 344.241 7.61333 344.486 6.696 344.977C5.77867 345.489 5.07467 346.15 4.584 346.961C4.11467 347.793 3.88 348.667 3.88 349.585C3.88 350.523 4.11467 351.398 4.584 352.209C5.05333 353.019 5.736 353.67 6.632 354.161C7.54933 354.673 8.616 354.929 9.832 354.929Z" fill="#FF7E8E"/>
</svg>
