<svg width="99" height="562" viewBox="0 0 99 562" fill="none" xmlns="http://www.w3.org/2000/svg">
<path d="M58.664 13.6944C58.664 11.2624 59.064 9.08636 59.864 7.16636C60.696 5.27836 61.816 3.77436 63.224 2.65436C64.664 1.56636 66.28 0.958363 68.072 0.830363V9.95036C67.208 10.0784 66.536 10.4784 66.056 11.1504C65.576 11.8224 65.336 12.6544 65.336 13.6464C65.336 14.4144 65.496 15.0224 65.816 15.4704C66.136 15.9184 66.552 16.1424 67.064 16.1424C67.736 16.1424 68.232 15.7744 68.552 15.0384C68.872 14.3024 69.224 13.0864 69.608 11.3904C69.992 9.47036 70.424 7.87036 70.904 6.59036C71.384 5.31036 72.168 4.19036 73.256 3.23036C74.344 2.30236 75.816 1.83836 77.672 1.83836C79.272 1.83836 80.712 2.27036 81.992 3.13436C83.304 3.99836 84.344 5.26236 85.112 6.92636C85.88 8.62236 86.264 10.6544 86.264 13.0224C86.264 16.5424 85.4 19.3104 83.672 21.3264C81.944 23.3424 79.672 24.5104 76.856 24.8304V16.3344C77.72 16.1744 78.376 15.7904 78.824 15.1824C79.304 14.6064 79.544 13.8224 79.544 12.8304C79.544 12.0624 79.4 11.4704 79.112 11.0544C78.824 10.6704 78.424 10.4784 77.912 10.4784C77.272 10.4784 76.776 10.8464 76.424 11.5824C76.104 12.3184 75.768 13.5024 75.416 15.1344C75 17.0864 74.536 18.7024 74.024 19.9824C73.512 21.2944 72.68 22.4304 71.528 23.3904C70.408 24.3824 68.872 24.8784 66.92 24.8784C65.352 24.8784 63.944 24.4144 62.696 23.4864C61.448 22.5904 60.456 21.2944 59.72 19.5984C59.016 17.9344 58.664 15.9664 58.664 13.6944ZM82.184 41.3116C83.432 42.0476 84.424 43.0876 85.16 44.4316C85.896 45.7756 86.264 47.3596 86.264 49.1836C86.264 51.3276 85.704 53.2636 84.584 54.9916C83.464 56.7516 81.864 58.1276 79.784 59.1196C77.704 60.1436 75.272 60.6556 72.488 60.6556C69.704 60.6556 67.256 60.1436 65.144 59.1196C63.064 58.1276 61.464 56.7516 60.344 54.9916C59.224 53.2636 58.664 51.3276 58.664 49.1836C58.664 47.3596 59.032 45.7756 59.768 44.4316C60.504 43.1196 61.496 42.0796 62.744 41.3116H46.136V31.9036H85.928V41.3116H82.184ZM72.488 51.1036C74.248 51.1036 75.608 50.6236 76.568 49.6636C77.56 48.7356 78.056 47.5836 78.056 46.2076C78.056 44.8316 77.56 43.6636 76.568 42.7036C75.576 41.7756 74.216 41.3116 72.488 41.3116C70.728 41.3116 69.352 41.7756 68.36 42.7036C67.368 43.6636 66.872 44.8316 66.872 46.2076C66.872 47.5836 67.368 48.7356 68.36 49.6636C69.384 50.6236 70.76 51.1036 72.488 51.1036ZM72.488 65.3926C75.272 65.3926 77.704 65.8886 79.784 66.8806C81.864 67.9046 83.464 69.2806 84.584 71.0086C85.704 72.7686 86.264 74.7206 86.264 76.8646C86.264 78.7206 85.896 80.3206 85.16 81.6646C84.424 83.0086 83.432 84.0486 82.184 84.7846H85.928V94.1926H59V84.7846H62.744C61.496 84.0486 60.504 82.9926 59.768 81.6166C59.032 80.2726 58.664 78.6886 58.664 76.8646C58.664 74.7206 59.224 72.7686 60.344 71.0086C61.464 69.2806 63.064 67.9046 65.144 66.8806C67.256 65.8886 69.704 65.3926 72.488 65.3926ZM72.488 84.7846C74.216 84.7846 75.576 84.3046 76.568 83.3446C77.56 82.4166 78.056 81.2646 78.056 79.8886C78.056 78.4806 77.56 77.3126 76.568 76.3846C75.608 75.4566 74.248 74.9926 72.488 74.9926C70.76 74.9926 69.384 75.4566 68.36 76.3846C67.368 77.3126 66.872 78.4806 66.872 79.8886C66.872 81.2646 67.368 82.4166 68.36 83.3446C69.352 84.3046 70.728 84.7846 72.488 84.7846ZM81.176 111.362C82.712 112.418 83.928 113.698 84.824 115.202C85.72 116.706 86.168 118.322 86.168 120.05H76.136V117.41C76.136 115.362 75.736 113.842 74.936 112.85C74.136 111.858 72.744 111.362 70.76 111.362H59V101.954H85.928V111.362H81.176ZM59 142.67L70.04 135.23H59V125.822H94.52V135.23H75.368L85.928 142.67V153.95L72.392 143.342L59 154.142V142.67ZM72.488 169.352C75.272 169.352 77.704 169.848 79.784 170.84C81.864 171.864 83.464 173.256 84.584 175.016C85.704 176.776 86.264 178.728 86.264 180.872C86.264 182.6 85.896 184.136 85.16 185.48C84.456 186.856 83.48 187.928 82.232 188.696H94.52V198.152H59V188.696H62.744C61.496 187.96 60.504 186.92 59.768 185.576C59.032 184.232 58.664 182.648 58.664 180.824C58.664 178.68 59.224 176.728 60.344 174.968C61.464 173.24 63.064 171.864 65.144 170.84C67.256 169.848 69.704 169.352 72.488 169.352ZM72.488 188.744C74.216 188.744 75.576 188.264 76.568 187.304C77.56 186.376 78.056 185.224 78.056 183.848C78.056 182.44 77.56 181.272 76.568 180.344C75.608 179.416 74.248 178.952 72.488 178.952C70.76 178.952 69.384 179.416 68.36 180.344C67.368 181.272 66.872 182.44 66.872 183.848C66.872 185.224 67.368 186.376 68.36 187.304C69.352 188.264 70.728 188.744 72.488 188.744ZM72.776 231.641C72.04 231.641 71.304 231.593 70.568 231.497V213.689C69.096 213.785 67.992 214.185 67.256 214.889C66.552 215.625 66.2 216.553 66.2 217.673C66.2 219.241 66.904 220.361 68.312 221.033V231.065C66.456 230.649 64.792 229.833 63.32 228.617C61.88 227.433 60.744 225.929 59.912 224.105C59.08 222.281 58.664 220.265 58.664 218.057C58.664 215.401 59.224 213.033 60.344 210.953C61.464 208.905 63.064 207.289 65.144 206.105C67.224 204.953 69.672 204.377 72.488 204.377C75.304 204.377 77.736 204.953 79.784 206.105C81.864 207.257 83.464 208.857 84.584 210.905C85.704 212.985 86.264 215.369 86.264 218.057C86.264 220.713 85.72 223.065 84.632 225.113C83.544 227.161 81.976 228.761 79.928 229.913C77.912 231.065 75.528 231.641 72.776 231.641ZM75.128 222.041C76.28 222.041 77.176 221.657 77.816 220.889C78.488 220.121 78.824 219.161 78.824 218.009C78.824 216.857 78.504 215.913 77.864 215.177C77.256 214.441 76.344 213.961 75.128 213.737V222.041ZM58.664 249.363C58.664 246.931 59.064 244.755 59.864 242.835C60.696 240.947 61.816 239.443 63.224 238.323C64.664 237.235 66.28 236.627 68.072 236.499V245.619C67.208 245.747 66.536 246.147 66.056 246.819C65.576 247.491 65.336 248.323 65.336 249.315C65.336 250.083 65.496 250.691 65.816 251.139C66.136 251.587 66.552 251.811 67.064 251.811C67.736 251.811 68.232 251.443 68.552 250.707C68.872 249.971 69.224 248.755 69.608 247.059C69.992 245.139 70.424 243.539 70.904 242.259C71.384 240.979 72.168 239.859 73.256 238.899C74.344 237.971 75.816 237.507 77.672 237.507C79.272 237.507 80.712 237.939 81.992 238.803C83.304 239.667 84.344 240.931 85.112 242.595C85.88 244.291 86.264 246.323 86.264 248.691C86.264 252.211 85.4 254.979 83.672 256.995C81.944 259.011 79.672 260.179 76.856 260.499V252.003C77.72 251.843 78.376 251.459 78.824 250.851C79.304 250.275 79.544 249.491 79.544 248.499C79.544 247.731 79.4 247.139 79.112 246.723C78.824 246.339 78.424 246.147 77.912 246.147C77.272 246.147 76.776 246.515 76.424 247.251C76.104 247.987 75.768 249.171 75.416 250.803C75 252.755 74.536 254.371 74.024 255.651C73.512 256.963 72.68 258.099 71.528 259.059C70.408 260.051 68.872 260.547 66.92 260.547C65.352 260.547 63.944 260.083 62.696 259.155C61.448 258.259 60.456 256.963 59.72 255.267C59.016 253.603 58.664 251.635 58.664 249.363ZM88.424 272.324C88.424 270.66 88.872 269.316 89.768 268.292C90.696 267.3 91.848 266.804 93.224 266.804C94.632 266.804 95.8 267.3 96.728 268.292C97.656 269.316 98.12 270.66 98.12 272.324C98.12 273.956 97.656 275.268 96.728 276.26C95.8 277.284 94.632 277.796 93.224 277.796C91.848 277.796 90.696 277.284 89.768 276.26C88.872 275.268 88.424 273.956 88.424 272.324ZM85.928 276.98H59V267.572H85.928V276.98ZM86.264 294.674C86.264 296.498 85.896 298.082 85.16 299.426C84.424 300.802 83.432 301.858 82.184 302.594H85.928V312.002H59.288C56.76 312.002 54.488 311.522 52.472 310.562C50.424 309.602 48.792 308.098 47.576 306.05C46.36 304.034 45.752 301.474 45.752 298.37C45.752 294.21 46.728 290.882 48.68 288.386C50.632 285.89 53.288 284.466 56.648 284.114V293.378C55.784 293.57 55.112 294.05 54.632 294.818C54.152 295.586 53.912 296.578 53.912 297.794C53.912 300.994 55.704 302.594 59.288 302.594H62.744C61.496 301.858 60.504 300.802 59.768 299.426C59.032 298.082 58.664 296.498 58.664 294.674C58.664 292.53 59.224 290.578 60.344 288.818C61.464 287.09 63.064 285.714 65.144 284.69C67.256 283.698 69.704 283.202 72.488 283.202C75.272 283.202 77.704 283.698 79.784 284.69C81.864 285.714 83.464 287.09 84.584 288.818C85.704 290.578 86.264 292.53 86.264 294.674ZM72.488 302.594C74.216 302.594 75.576 302.114 76.568 301.154C77.56 300.226 78.056 299.074 78.056 297.698C78.056 296.29 77.56 295.122 76.568 294.194C75.608 293.266 74.248 292.802 72.488 292.802C70.76 292.802 69.384 293.266 68.36 294.194C67.368 295.122 66.872 296.29 66.872 297.698C66.872 299.074 67.368 300.226 68.36 301.154C69.352 302.114 70.728 302.594 72.488 302.594ZM86.168 337.379C86.168 340.483 85.128 342.947 83.048 344.771C81 346.595 78.216 347.507 74.696 347.507H59V338.099H73.448C74.984 338.099 76.184 337.699 77.048 336.899C77.944 336.099 78.392 335.027 78.392 333.683C78.392 332.275 77.944 331.171 77.048 330.371C76.184 329.571 74.984 329.171 73.448 329.171H59V319.763H85.928V329.171H82.088C83.304 330.003 84.28 331.123 85.016 332.531C85.784 333.939 86.168 335.555 86.168 337.379ZM58.664 378.129C58.664 375.697 59.064 373.521 59.864 371.601C60.696 369.713 61.816 368.209 63.224 367.089C64.664 366.001 66.28 365.393 68.072 365.265V374.385C67.208 374.513 66.536 374.913 66.056 375.585C65.576 376.257 65.336 377.089 65.336 378.081C65.336 378.849 65.496 379.457 65.816 379.905C66.136 380.353 66.552 380.577 67.064 380.577C67.736 380.577 68.232 380.209 68.552 379.473C68.872 378.737 69.224 377.521 69.608 375.825C69.992 373.905 70.424 372.305 70.904 371.025C71.384 369.745 72.168 368.625 73.256 367.665C74.344 366.737 75.816 366.273 77.672 366.273C79.272 366.273 80.712 366.705 81.992 367.569C83.304 368.433 84.344 369.697 85.112 371.361C85.88 373.057 86.264 375.089 86.264 377.457C86.264 380.977 85.4 383.745 83.672 385.761C81.944 387.777 79.672 388.945 76.856 389.265L76.856 380.769C77.72 380.609 78.376 380.225 78.824 379.617C79.304 379.041 79.544 378.257 79.544 377.265C79.544 376.497 79.4 375.905 79.112 375.489C78.824 375.105 78.424 374.913 77.912 374.913C77.272 374.913 76.776 375.281 76.424 376.017C76.104 376.753 75.768 377.937 75.416 379.569C75 381.521 74.536 383.137 74.024 384.417C73.512 385.729 72.68 386.865 71.528 387.825C70.408 388.817 68.872 389.313 66.92 389.313C65.352 389.313 63.944 388.849 62.696 387.921C61.448 387.025 60.456 385.729 59.72 384.033C59.016 382.369 58.664 380.401 58.664 378.129ZM85.928 425.33L46.184 408.242V398.018L60.152 404.45L85.928 393.41V403.874L70.664 409.538L85.928 415.01V425.33ZM58.664 441.663C58.664 439.231 59.064 437.055 59.864 435.135C60.696 433.247 61.816 431.743 63.224 430.623C64.664 429.535 66.28 428.927 68.072 428.799V437.919C67.208 438.047 66.536 438.447 66.056 439.119C65.576 439.791 65.336 440.623 65.336 441.615C65.336 442.383 65.496 442.991 65.816 443.439C66.136 443.887 66.552 444.111 67.064 444.111C67.736 444.111 68.232 443.743 68.552 443.007C68.872 442.271 69.224 441.055 69.608 439.359C69.992 437.439 70.424 435.839 70.904 434.559C71.384 433.279 72.168 432.159 73.256 431.199C74.344 430.271 75.816 429.807 77.672 429.807C79.272 429.807 80.712 430.239 81.992 431.103C83.304 431.967 84.344 433.231 85.112 434.895C85.88 436.591 86.264 438.623 86.264 440.991C86.264 444.511 85.4 447.279 83.672 449.295C81.944 451.311 79.672 452.479 76.856 452.799V444.303C77.72 444.143 78.376 443.759 78.824 443.151C79.304 442.575 79.544 441.791 79.544 440.799C79.544 440.031 79.4 439.439 79.112 439.023C78.824 438.639 78.424 438.447 77.912 438.447C77.272 438.447 76.776 438.815 76.424 439.551C76.104 440.287 75.768 441.471 75.416 443.103C75 445.055 74.536 446.671 74.024 447.951C73.512 449.263 72.68 450.399 71.528 451.359C70.408 452.351 68.872 452.847 66.92 452.847C65.352 452.847 63.944 452.383 62.696 451.455C61.448 450.559 60.456 449.263 59.72 447.567C59.016 445.903 58.664 443.935 58.664 441.663ZM67.016 475.76H59V471.68C59 464.8 62.408 461.36 69.224 461.36H78.104V458.048H85.928V461.36H92.456V470.816H85.928V475.712H78.104V470.816H69.08C68.344 470.816 67.816 470.976 67.496 471.296C67.176 471.648 67.016 472.224 67.016 473.024V475.76ZM72.776 508.203C72.04 508.203 71.304 508.155 70.568 508.059V490.251C69.096 490.347 67.992 490.747 67.256 491.451C66.552 492.187 66.2 493.115 66.2 494.235C66.2 495.803 66.904 496.923 68.312 497.595V507.627C66.456 507.211 64.792 506.395 63.32 505.179C61.88 503.995 60.744 502.491 59.912 500.667C59.08 498.843 58.664 496.827 58.664 494.619C58.664 491.963 59.224 489.595 60.344 487.515C61.464 485.467 63.064 483.851 65.144 482.667C67.224 481.515 69.672 480.939 72.488 480.939C75.304 480.939 77.736 481.515 79.784 482.667C81.864 483.819 83.464 485.419 84.584 487.467C85.704 489.547 86.264 491.931 86.264 494.619C86.264 497.275 85.72 499.627 84.632 501.675C83.544 503.723 81.976 505.323 79.928 506.475C77.912 507.627 75.528 508.203 72.776 508.203ZM75.128 498.603C76.28 498.603 77.176 498.219 77.816 497.451C78.488 496.683 78.824 495.723 78.824 494.571C78.824 493.419 78.504 492.475 77.864 491.739C77.256 491.003 76.344 490.523 75.128 490.299V498.603ZM86.168 549.638C86.168 553.03 85.144 555.686 83.096 557.606C81.048 559.558 78.248 560.534 74.696 560.534H59V551.126H73.448C74.888 551.126 76.008 550.726 76.808 549.926C77.608 549.126 78.008 548.038 78.008 546.662C78.008 545.286 77.608 544.198 76.808 543.398C76.008 542.598 74.888 542.198 73.448 542.198H59L59 532.79H73.448C74.888 532.79 76.008 532.39 76.808 531.59C77.608 530.822 78.008 529.75 78.008 528.374C78.008 526.966 77.608 525.862 76.808 525.062C76.008 524.262 74.888 523.862 73.448 523.862H59V514.454H85.928V523.862H82.376C83.528 524.694 84.44 525.766 85.112 527.078C85.816 528.422 86.168 529.958 86.168 531.686C86.168 533.67 85.736 535.43 84.872 536.966C84.008 538.534 82.792 539.766 81.224 540.662C82.696 541.622 83.88 542.886 84.776 544.454C85.704 546.022 86.168 547.75 86.168 549.638Z" fill="#C50000"/>
<path d="M17.832 142.122C19.6453 142.122 21.2347 142.484 22.6 143.21C23.9867 143.956 25.0533 144.98 25.8 146.282C26.5467 147.583 26.92 149.076 26.92 150.762C26.92 152.895 26.408 154.655 25.384 156.042C24.3813 157.45 22.9413 158.399 21.064 158.89V154.954C21.9387 154.634 22.6213 154.122 23.112 153.418C23.6027 152.714 23.848 151.828 23.848 150.762C23.848 149.268 23.3147 148.074 22.248 147.178C21.2027 146.303 19.7307 145.866 17.832 145.866C15.9333 145.866 14.4507 146.303 13.384 147.178C12.3173 148.074 11.784 149.268 11.784 150.762C11.784 152.874 12.712 154.271 14.568 154.954V158.89C12.776 158.378 11.3467 157.418 10.28 156.01C9.23467 154.602 8.712 152.852 8.712 150.762C8.712 149.076 9.08533 147.583 9.832 146.282C10.6 144.98 11.6667 143.956 13.032 143.21C14.4187 142.484 16.0187 142.122 17.832 142.122ZM8.712 171.773C8.712 170.109 9.08533 168.605 9.832 167.261C10.6 165.917 11.6667 164.861 13.032 164.093C14.4187 163.325 16.0187 162.941 17.832 162.941C19.624 162.941 21.2133 163.336 22.6 164.125C23.9867 164.914 25.0533 165.992 25.8 167.357C26.5467 168.722 26.92 170.248 26.92 171.933C26.92 173.618 26.5467 175.144 25.8 176.509C25.0533 177.874 23.9867 178.952 22.6 179.741C21.2133 180.53 19.624 180.925 17.832 180.925C16.04 180.925 14.4507 180.52 13.064 179.709C11.6773 178.898 10.6 177.789 9.832 176.381C9.08533 174.994 8.712 173.458 8.712 171.773ZM11.88 171.773C11.88 172.712 12.104 173.586 12.552 174.397C13 175.229 13.672 175.901 14.568 176.413C15.464 176.925 16.552 177.181 17.832 177.181C19.112 177.181 20.1893 176.936 21.064 176.445C21.96 175.954 22.632 175.304 23.08 174.493C23.528 173.682 23.752 172.808 23.752 171.869C23.752 170.93 23.528 170.056 23.08 169.245C22.632 168.456 21.96 167.826 21.064 167.357C20.1893 166.888 19.112 166.653 17.832 166.653C15.9333 166.653 14.4613 167.133 13.416 168.093C12.392 169.074 11.88 170.301 11.88 171.773ZM26.92 207.475C26.92 208.862 26.632 210.099 26.056 211.187C25.48 212.297 24.6267 213.161 23.496 213.779C22.3653 214.419 21 214.739 19.4 214.739H9V211.123H18.856C20.4347 211.123 21.64 210.729 22.472 209.939C23.3253 209.15 23.752 208.073 23.752 206.707C23.752 205.342 23.3253 204.254 22.472 203.443C21.64 202.654 20.4347 202.259 18.856 202.259H9V198.643H18.856C20.4347 198.643 21.64 198.249 22.472 197.459C23.3253 196.67 23.752 195.593 23.752 194.227C23.752 192.862 23.3253 191.774 22.472 190.963C21.64 190.174 20.4347 189.779 18.856 189.779H9V186.131H26.632V189.779H24.616C25.3413 190.377 25.9067 191.134 26.312 192.051C26.7173 192.969 26.92 193.95 26.92 194.995C26.92 196.403 26.6213 197.662 26.024 198.771C25.4267 199.881 24.5627 200.734 23.432 201.331C24.4987 201.865 25.3413 202.697 25.96 203.827C26.6 204.958 26.92 206.174 26.92 207.475ZM24.04 224.629C24.8507 225.248 25.5333 226.091 26.088 227.157C26.6427 228.224 26.92 229.429 26.92 230.773C26.92 232.309 26.536 233.707 25.768 234.965C25.0213 236.245 23.9653 237.248 22.6 237.973C21.2347 238.699 19.6667 239.061 17.896 239.061C16.1253 239.061 14.536 238.699 13.128 237.973C11.7413 237.248 10.6533 236.245 9.864 234.965C9.096 233.707 8.712 232.309 8.712 230.773C8.712 229.429 8.97867 228.235 9.512 227.189C10.0667 226.144 10.7493 225.291 11.56 224.629H0.615999V220.981H26.632V224.629H24.04ZM17.896 235.349C19.112 235.349 20.1573 235.093 21.032 234.581C21.928 234.091 22.6 233.429 23.048 232.597C23.5173 231.787 23.752 230.912 23.752 229.973C23.752 229.056 23.5173 228.181 23.048 227.349C22.5787 226.539 21.896 225.877 21 225.365C20.104 224.875 19.048 224.629 17.832 224.629C16.616 224.629 15.5493 224.875 14.632 225.365C13.736 225.877 13.0533 226.539 12.584 227.349C12.1147 228.181 11.88 229.056 11.88 229.973C11.88 230.912 12.1147 231.787 12.584 232.597C13.0747 233.429 13.7787 234.091 14.696 234.581C15.6133 235.093 16.68 235.349 17.896 235.349ZM8.712 251.917C8.712 250.253 9.08533 248.749 9.832 247.405C10.6 246.061 11.6667 245.005 13.032 244.237C14.4187 243.469 16.0187 243.085 17.832 243.085C19.624 243.085 21.2133 243.479 22.6 244.269C23.9867 245.058 25.0533 246.135 25.8 247.501C26.5467 248.866 26.92 250.391 26.92 252.077C26.92 253.762 26.5467 255.287 25.8 256.653C25.0533 258.018 23.9867 259.095 22.6 259.885C21.2133 260.674 19.624 261.069 17.832 261.069C16.04 261.069 14.4507 260.663 13.064 259.853C11.6773 259.042 10.6 257.933 9.832 256.525C9.08533 255.138 8.712 253.602 8.712 251.917ZM11.88 251.917C11.88 252.855 12.104 253.73 12.552 254.541C13 255.373 13.672 256.045 14.568 256.557C15.464 257.069 16.552 257.325 17.832 257.325C19.112 257.325 20.1893 257.079 21.064 256.589C21.96 256.098 22.632 255.447 23.08 254.637C23.528 253.826 23.752 252.951 23.752 252.013C23.752 251.074 23.528 250.199 23.08 249.389C22.632 248.599 21.96 247.97 21.064 247.501C20.1893 247.031 19.112 246.797 17.832 246.797C15.9333 246.797 14.4613 247.277 13.416 248.237C12.392 249.218 11.88 250.445 11.88 251.917ZM26.92 275.171C26.92 276.558 26.632 277.795 26.056 278.883C25.48 279.992 24.6267 280.856 23.496 281.475C22.3653 282.094 21 282.403 19.4 282.403H9V278.787H18.856C20.4347 278.787 21.64 278.392 22.472 277.603C23.3253 276.814 23.752 275.736 23.752 274.371C23.752 273.006 23.3253 271.918 22.472 271.107C21.64 270.318 20.4347 269.923 18.856 269.923H9V266.275H26.632V269.923H24.616C25.3413 270.52 25.9067 271.278 26.312 272.195C26.7173 273.134 26.92 274.126 26.92 275.171ZM18.248 304.816C17.5867 304.816 16.9893 304.774 16.456 304.688V291.216C15.048 291.323 13.9173 291.846 13.064 292.784C12.2107 293.723 11.784 294.875 11.784 296.24C11.784 298.203 12.6053 299.59 14.248 300.4V304.336C12.6267 303.803 11.2933 302.832 10.248 301.424C9.224 300.038 8.712 298.31 8.712 296.24C8.712 294.555 9.08533 293.04 9.832 291.696C10.6 290.374 11.6667 289.328 13.032 288.56C14.4187 287.814 16.0187 287.44 17.832 287.44C19.6453 287.44 21.2347 287.803 22.6 288.528C23.9867 289.275 25.0533 290.31 25.8 291.632C26.5467 292.976 26.92 294.512 26.92 296.24C26.92 297.904 26.5573 299.387 25.832 300.688C25.1067 301.99 24.0827 303.003 22.76 303.728C21.4587 304.454 19.9547 304.816 18.248 304.816ZM19.4 301.008C20.744 300.987 21.8213 300.507 22.632 299.568C23.4427 298.63 23.848 297.467 23.848 296.08C23.848 294.822 23.4427 293.744 22.632 292.848C21.8427 291.952 20.7653 291.419 19.4 291.248V301.008ZM26.92 318.902C26.92 320.289 26.632 321.526 26.056 322.614C25.48 323.724 24.6267 324.588 23.496 325.206C22.3653 325.825 21 326.134 19.4 326.134H9V322.518H18.856C20.4347 322.518 21.64 322.124 22.472 321.334C23.3253 320.545 23.752 319.468 23.752 318.102C23.752 316.737 23.3253 315.649 22.472 314.838C21.64 314.049 20.4347 313.654 18.856 313.654H9V310.006H26.632V313.654H24.616C25.3413 314.252 25.9067 315.009 26.312 315.926C26.7173 316.865 26.92 317.857 26.92 318.902ZM23.656 336.643H13.896C13.2347 336.643 12.7547 336.793 12.456 337.091C12.1787 337.411 12.04 337.945 12.04 338.691V340.931H9V338.051C9 336.409 9.384 335.15 10.152 334.275C10.92 333.401 12.168 332.963 13.896 332.963H23.656V330.883H26.632V332.963H31.016V336.643H26.632V340.931H23.656V336.643ZM8.712 362.206C8.712 360.82 8.95733 359.572 9.448 358.462C9.96 357.374 10.6427 356.51 11.496 355.87C12.3707 355.23 13.3413 354.889 14.408 354.846V358.622C13.6613 358.686 13.032 359.038 12.52 359.678C12.0293 360.34 11.784 361.161 11.784 362.142C11.784 363.166 11.976 363.956 12.36 364.51C12.7653 365.086 13.2773 365.374 13.896 365.374C14.5573 365.374 15.048 365.054 15.368 364.414C15.688 363.796 16.04 362.804 16.424 361.438C16.7867 360.116 17.1387 359.038 17.48 358.206C17.8213 357.374 18.344 356.649 19.048 356.03C19.752 355.433 20.68 355.134 21.832 355.134C22.7707 355.134 23.624 355.412 24.392 355.966C25.1813 356.521 25.8 357.31 26.248 358.334C26.696 359.38 26.92 360.574 26.92 361.918C26.92 363.924 26.408 365.534 25.384 366.75C24.3813 367.988 23.0053 368.649 21.256 368.734V365.086C22.0453 365.022 22.6747 364.702 23.144 364.126C23.6133 363.55 23.848 362.772 23.848 361.79C23.848 360.83 23.6667 360.094 23.304 359.582C22.9413 359.07 22.4613 358.814 21.864 358.814C21.3947 358.814 21 358.985 20.68 359.326C20.36 359.668 20.104 360.084 19.912 360.574C19.7413 361.065 19.5173 361.79 19.24 362.75C18.8987 364.03 18.5467 365.076 18.184 365.886C17.8427 366.718 17.3307 367.433 16.648 368.03C15.9653 368.628 15.0587 368.937 13.928 368.958C12.9253 368.958 12.0293 368.681 11.24 368.126C10.4507 367.572 9.832 366.782 9.384 365.758C8.936 364.756 8.712 363.572 8.712 362.206ZM23.656 378.756H13.896C13.2347 378.756 12.7547 378.905 12.456 379.204C12.1787 379.524 12.04 380.057 12.04 380.804V383.044H9V380.164C9 378.521 9.384 377.263 10.152 376.388C10.92 375.513 12.168 375.076 13.896 375.076H23.656V372.996H26.632V375.076H31.016V378.756H26.632V383.044H23.656V378.756ZM17.896 386.79C19.6667 386.79 21.2347 387.153 22.6 387.878C23.9653 388.625 25.0213 389.628 25.768 390.886C26.536 392.166 26.92 393.574 26.92 395.11C26.92 396.497 26.6427 397.702 26.088 398.726C25.5547 399.772 24.8827 400.604 24.072 401.222H26.632V404.902H9V401.222H11.624C10.792 400.604 10.0987 399.761 9.544 398.694C8.98933 397.628 8.712 396.412 8.712 395.046C8.712 393.532 9.096 392.145 9.864 390.886C10.6533 389.628 11.7413 388.625 13.128 387.878C14.536 387.153 16.1253 386.79 17.896 386.79ZM17.832 401.222C19.048 401.222 20.104 400.966 21 400.454C21.896 399.964 22.5787 399.313 23.048 398.502C23.5173 397.692 23.752 396.817 23.752 395.878C23.752 394.94 23.5173 394.065 23.048 393.254C22.6 392.444 21.928 391.782 21.032 391.27C20.1573 390.78 19.112 390.534 17.896 390.534C16.68 390.534 15.6133 390.78 14.696 391.27C13.7787 391.782 13.0747 392.444 12.584 393.254C12.1147 394.086 11.88 394.961 11.88 395.878C11.88 396.817 12.1147 397.692 12.584 398.502C13.0533 399.313 13.736 399.964 14.632 400.454C15.5493 400.966 16.616 401.222 17.832 401.222ZM23.656 415.55H13.896C13.2347 415.55 12.7547 415.699 12.456 415.998C12.1787 416.318 12.04 416.851 12.04 417.598V419.838H9V416.958C9 415.315 9.384 414.056 10.152 413.182C10.92 412.307 12.168 411.87 13.896 411.87H23.656V409.79H26.632V411.87H31.016V415.55H26.632V419.838H23.656V415.55ZM26.632 440.768H9V437.12H11.08C10.3547 436.544 9.77867 435.787 9.352 434.848C8.94667 433.931 8.744 432.949 8.744 431.904C8.744 430.517 9.032 429.269 9.608 428.16C10.184 427.072 11.0373 426.208 12.168 425.568C13.2987 424.949 14.664 424.64 16.264 424.64H26.632V428.256H16.808C15.2293 428.256 14.0133 428.651 13.16 429.44C12.328 430.229 11.912 431.307 11.912 432.672C11.912 434.037 12.328 435.115 13.16 435.904C14.0133 436.715 15.2293 437.12 16.808 437.12H26.632V440.768ZM8.712 453.581C8.712 452.195 8.95733 450.947 9.448 449.837C9.96 448.749 10.6427 447.885 11.496 447.245C12.3707 446.605 13.3413 446.264 14.408 446.221V449.997C13.6613 450.061 13.032 450.413 12.52 451.053C12.0293 451.715 11.784 452.536 11.784 453.517C11.784 454.541 11.976 455.331 12.36 455.885C12.7653 456.461 13.2773 456.749 13.896 456.749C14.5573 456.749 15.048 456.429 15.368 455.789C15.688 455.171 16.04 454.179 16.424 452.813C16.7867 451.491 17.1387 450.413 17.48 449.581C17.8213 448.749 18.344 448.024 19.048 447.405C19.752 446.808 20.68 446.509 21.832 446.509C22.7707 446.509 23.624 446.787 24.392 447.341C25.1813 447.896 25.8 448.685 26.248 449.709C26.696 450.755 26.92 451.949 26.92 453.293C26.92 455.299 26.408 456.909 25.384 458.125C24.3813 459.363 23.0053 460.024 21.256 460.109V456.461C22.0453 456.397 22.6747 456.077 23.144 455.501C23.6133 454.925 23.848 454.147 23.848 453.165C23.848 452.205 23.6667 451.469 23.304 450.957C22.9413 450.445 22.4613 450.189 21.864 450.189C21.3947 450.189 21 450.36 20.68 450.701C20.36 451.043 20.104 451.459 19.912 451.949C19.7413 452.44 19.5173 453.165 19.24 454.125C18.8987 455.405 18.5467 456.451 18.184 457.261C17.8427 458.093 17.3307 458.808 16.648 459.405C15.9653 460.003 15.0587 460.312 13.928 460.333C12.9253 460.333 12.0293 460.056 11.24 459.501C10.4507 458.947 9.832 458.157 9.384 457.133C8.936 456.131 8.712 454.947 8.712 453.581ZM24.04 479.436C24.8507 480.054 25.5333 480.897 26.088 481.964C26.6427 483.03 26.92 484.236 26.92 485.58C26.92 487.116 26.536 488.513 25.768 489.772C25.0213 491.052 23.9653 492.054 22.6 492.78C21.2347 493.505 19.6667 493.868 17.896 493.868C16.1253 493.868 14.536 493.505 13.128 492.78C11.7413 492.054 10.6533 491.052 9.864 489.772C9.096 488.513 8.712 487.116 8.712 485.58C8.712 484.236 8.97867 483.041 9.512 481.996C10.0667 480.95 10.7493 480.097 11.56 479.436H0.615999V475.788H26.632V479.436H24.04ZM17.896 490.156C19.112 490.156 20.1573 489.9 21.032 489.388C21.928 488.897 22.6 488.236 23.048 487.404C23.5173 486.593 23.752 485.718 23.752 484.78C23.752 483.862 23.5173 482.988 23.048 482.156C22.5787 481.345 21.896 480.684 21 480.172C20.104 479.681 19.048 479.436 17.832 479.436C16.616 479.436 15.5493 479.681 14.632 480.172C13.736 480.684 13.0533 481.345 12.584 482.156C12.1147 482.988 11.88 483.862 11.88 484.78C11.88 485.718 12.1147 486.593 12.584 487.404C13.0747 488.236 13.7787 488.897 14.696 489.388C15.6133 489.9 16.68 490.156 17.896 490.156ZM17.896 497.859C19.6667 497.859 21.2347 498.222 22.6 498.947C23.9653 499.694 25.0213 500.696 25.768 501.955C26.536 503.235 26.92 504.643 26.92 506.179C26.92 507.566 26.6427 508.771 26.088 509.795C25.5547 510.84 24.8827 511.672 24.072 512.291H26.632V515.971H9V512.291H11.624C10.792 511.672 10.0987 510.83 9.544 509.763C8.98933 508.696 8.712 507.48 8.712 506.115C8.712 504.6 9.096 503.214 9.864 501.955C10.6533 500.696 11.7413 499.694 13.128 498.947C14.536 498.222 16.1253 497.859 17.896 497.859ZM17.832 512.291C19.048 512.291 20.104 512.035 21 511.523C21.896 511.032 22.5787 510.382 23.048 509.571C23.5173 508.76 23.752 507.886 23.752 506.947C23.752 506.008 23.5173 505.134 23.048 504.323C22.6 503.512 21.928 502.851 21.032 502.339C20.1573 501.848 19.112 501.603 17.896 501.603C16.68 501.603 15.6133 501.848 14.696 502.339C13.7787 502.851 13.0747 503.512 12.584 504.323C12.1147 505.155 11.88 506.03 11.88 506.947C11.88 507.886 12.1147 508.76 12.584 509.571C13.0533 510.382 13.736 511.032 14.632 511.523C15.5493 512.035 16.616 512.291 17.832 512.291ZM26.92 529.467C26.92 530.832 26.6427 532.037 26.088 533.083C25.5547 534.149 24.8827 534.981 24.072 535.579H26.632V539.259H8.712C7.09067 539.259 5.65067 538.917 4.392 538.235C3.112 537.552 2.10933 536.56 1.384 535.259C0.658666 533.979 0.296 532.443 0.296 530.651C0.296 528.261 0.861333 526.277 1.992 524.699C3.10133 523.12 4.616 522.224 6.536 522.011V525.627C5.61867 525.904 4.88267 526.491 4.328 527.387C3.752 528.304 3.464 529.392 3.464 530.651C3.464 532.123 3.912 533.307 4.808 534.203C5.704 535.12 7.00533 535.579 8.712 535.579H11.656C10.824 534.96 10.12 534.117 9.544 533.051C8.98933 532.005 8.712 530.811 8.712 529.467C8.712 527.931 9.096 526.523 9.864 525.243C10.6533 523.984 11.7413 522.981 13.128 522.235C14.536 521.509 16.1253 521.147 17.896 521.147C19.6667 521.147 21.2347 521.509 22.6 522.235C23.9653 522.981 25.0213 523.984 25.768 525.243C26.536 526.523 26.92 527.931 26.92 529.467ZM17.832 535.579C19.048 535.579 20.104 535.323 21 534.811C21.896 534.32 22.5787 533.669 23.048 532.859C23.5173 532.048 23.752 531.173 23.752 530.235C23.752 529.296 23.5173 528.421 23.048 527.611C22.6 526.8 21.928 526.139 21.032 525.627C20.1573 525.136 19.112 524.891 17.896 524.891C16.68 524.891 15.6133 525.136 14.696 525.627C13.7787 526.139 13.0747 526.8 12.584 527.611C12.1147 528.443 11.88 529.317 11.88 530.235C11.88 531.173 12.1147 532.048 12.584 532.859C13.0533 533.669 13.736 534.32 14.632 534.811C15.5493 535.323 16.616 535.579 17.832 535.579ZM18.248 561.81C17.5867 561.81 16.9893 561.767 16.456 561.682V548.21C15.048 548.317 13.9173 548.839 13.064 549.778C12.2107 550.717 11.784 551.869 11.784 553.234C11.784 555.197 12.6053 556.583 14.248 557.394V561.33C12.6267 560.797 11.2933 559.826 10.248 558.418C9.224 557.031 8.712 555.303 8.712 553.234C8.712 551.549 9.08533 550.034 9.832 548.69C10.6 547.367 11.6667 546.322 13.032 545.554C14.4187 544.807 16.0187 544.434 17.832 544.434C19.6453 544.434 21.2347 544.797 22.6 545.522C23.9867 546.269 25.0533 547.303 25.8 548.626C26.5467 549.97 26.92 551.506 26.92 553.234C26.92 554.898 26.5573 556.381 25.832 557.682C25.1067 558.983 24.0827 559.997 22.76 560.722C21.4587 561.447 19.9547 561.81 18.248 561.81ZM19.4 558.002C20.744 557.981 21.8213 557.501 22.632 556.562C23.4427 555.623 23.848 554.461 23.848 553.074C23.848 551.815 23.4427 550.738 22.632 549.842C21.8427 548.946 20.7653 548.413 19.4 548.242V558.002Z" fill="#5F1DB4"/>
</svg>
