<svg width="224" height="28" viewBox="0 0 224 28" fill="none" xmlns="http://www.w3.org/2000/svg">
<path d="M6.61364 23.2557C5.55682 23.2557 4.61364 22.9858 3.78409 22.446C2.96023 21.9006 2.3125 21.125 1.84091 20.1193C1.375 19.108 1.14205 17.8949 1.14205 16.4801C1.14205 15.0653 1.37784 13.8551 1.84943 12.8494C2.3267 11.8437 2.98011 11.0739 3.80966 10.5398C4.6392 10.0057 5.57955 9.73864 6.63068 9.73864C7.44318 9.73864 8.09659 9.875 8.59091 10.1477C9.09091 10.4148 9.47727 10.7273 9.75 11.0852C10.0284 11.4432 10.2443 11.7585 10.3977 12.0312H10.5511V5.54545H13.0994V23H10.6108V20.9631H10.3977C10.2443 21.2415 10.0227 21.5597 9.73295 21.9176C9.44886 22.2756 9.05682 22.5881 8.55682 22.8551C8.05682 23.1222 7.40909 23.2557 6.61364 23.2557ZM7.17614 21.0824C7.90909 21.0824 8.52841 20.8892 9.03409 20.5028C9.54545 20.1108 9.93182 19.5682 10.1932 18.875C10.4602 18.1818 10.5938 17.375 10.5938 16.4545C10.5938 15.5455 10.4631 14.75 10.2017 14.0682C9.94034 13.3864 9.55682 12.8551 9.05114 12.4744C8.54545 12.0937 7.92045 11.9034 7.17614 11.9034C6.40909 11.9034 5.76989 12.1023 5.25852 12.5C4.74716 12.8977 4.3608 13.4403 4.09943 14.1278C3.84375 14.8153 3.71591 15.5909 3.71591 16.4545C3.71591 17.3295 3.84659 18.1165 4.10795 18.8153C4.36932 19.5142 4.75568 20.0682 5.26705 20.4773C5.78409 20.8807 6.42045 21.0824 7.17614 21.0824ZM20.5462 23.2898C19.7166 23.2898 18.9666 23.1364 18.2962 22.8295C17.6257 22.517 17.0945 22.0653 16.7024 21.4744C16.3161 20.8835 16.1229 20.1591 16.1229 19.3011C16.1229 18.5625 16.2649 17.9545 16.549 17.4773C16.8331 17 17.2166 16.6222 17.6996 16.3438C18.1825 16.0653 18.7223 15.8551 19.3189 15.7131C19.9155 15.571 20.5234 15.4631 21.1428 15.3892C21.9268 15.2983 22.5632 15.2244 23.0518 15.1676C23.5405 15.1051 23.8956 15.0057 24.1172 14.8693C24.3388 14.733 24.4496 14.5114 24.4496 14.2045V14.1449C24.4496 13.4006 24.2393 12.8239 23.8189 12.4148C23.4041 12.0057 22.7848 11.8011 21.9609 11.8011C21.103 11.8011 20.4268 11.9915 19.9325 12.3722C19.4439 12.7472 19.1058 13.1648 18.9183 13.625L16.5234 13.0795C16.8075 12.2841 17.2223 11.642 17.7678 11.1534C18.3189 10.6591 18.9524 10.3011 19.6683 10.0795C20.3842 9.85227 21.1371 9.73864 21.9268 9.73864C22.4496 9.73864 23.0036 9.80114 23.5888 9.92614C24.1797 10.0455 24.7308 10.267 25.2422 10.5909C25.7592 10.9148 26.1825 11.3778 26.5121 11.9801C26.8416 12.5767 27.0064 13.3523 27.0064 14.3068V23H24.5178V21.2102H24.4155C24.2507 21.5398 24.0036 21.8636 23.674 22.1818C23.3445 22.5 22.9212 22.7642 22.4041 22.9744C21.8871 23.1847 21.2678 23.2898 20.5462 23.2898ZM21.1001 21.2443C21.8047 21.2443 22.407 21.1051 22.907 20.8267C23.4126 20.5483 23.7962 20.1847 24.0575 19.7358C24.3246 19.2812 24.4581 18.7955 24.4581 18.2784V16.5909C24.3672 16.6818 24.1911 16.767 23.9297 16.8466C23.674 16.9205 23.3814 16.9858 23.0518 17.0426C22.7223 17.0937 22.4013 17.142 22.0888 17.1875C21.7763 17.2273 21.5149 17.2614 21.3047 17.2898C20.8104 17.3523 20.3587 17.4574 19.9496 17.6051C19.5462 17.7528 19.2223 17.9659 18.978 18.2443C18.7393 18.517 18.62 18.8807 18.62 19.3352C18.62 19.9659 18.853 20.4432 19.3189 20.767C19.7848 21.0852 20.3786 21.2443 21.1001 21.2443ZM36.5114 9.90909V11.9545H29.3608V9.90909H36.5114ZM31.2784 6.77273H33.8267V19.1562C33.8267 19.6506 33.9006 20.0227 34.0483 20.2727C34.196 20.517 34.3864 20.6847 34.6193 20.7756C34.858 20.8608 35.1165 20.9034 35.3949 20.9034C35.5994 20.9034 35.7784 20.8892 35.9318 20.8608C36.0852 20.8324 36.2045 20.8097 36.2898 20.7926L36.75 22.8977C36.6023 22.9545 36.392 23.0114 36.1193 23.0682C35.8466 23.1307 35.5057 23.1648 35.0966 23.1705C34.4261 23.1818 33.8011 23.0625 33.2216 22.8125C32.642 22.5625 32.1733 22.1761 31.8153 21.6534C31.4574 21.1307 31.2784 20.4744 31.2784 19.6847V6.77273ZM43.1399 23.2898C42.3104 23.2898 41.5604 23.1364 40.8899 22.8295C40.2195 22.517 39.6882 22.0653 39.2962 21.4744C38.9098 20.8835 38.7166 20.1591 38.7166 19.3011C38.7166 18.5625 38.8587 17.9545 39.1428 17.4773C39.4268 17 39.8104 16.6222 40.2933 16.3438C40.7763 16.0653 41.3161 15.8551 41.9126 15.7131C42.5092 15.571 43.1172 15.4631 43.7365 15.3892C44.5206 15.2983 45.157 15.2244 45.6456 15.1676C46.1342 15.1051 46.4893 15.0057 46.7109 14.8693C46.9325 14.733 47.0433 14.5114 47.0433 14.2045V14.1449C47.0433 13.4006 46.8331 12.8239 46.4126 12.4148C45.9979 12.0057 45.3786 11.8011 44.5547 11.8011C43.6967 11.8011 43.0206 11.9915 42.5263 12.3722C42.0376 12.7472 41.6996 13.1648 41.5121 13.625L39.1172 13.0795C39.4013 12.2841 39.8161 11.642 40.3615 11.1534C40.9126 10.6591 41.5462 10.3011 42.2621 10.0795C42.978 9.85227 43.7308 9.73864 44.5206 9.73864C45.0433 9.73864 45.5973 9.80114 46.1825 9.92614C46.7734 10.0455 47.3246 10.267 47.8359 10.5909C48.353 10.9148 48.7763 11.3778 49.1058 11.9801C49.4354 12.5767 49.6001 13.3523 49.6001 14.3068V23H47.1115V21.2102H47.0092C46.8445 21.5398 46.5973 21.8636 46.2678 22.1818C45.9382 22.5 45.5149 22.7642 44.9979 22.9744C44.4808 23.1847 43.8615 23.2898 43.1399 23.2898ZM43.6939 21.2443C44.3984 21.2443 45.0007 21.1051 45.5007 20.8267C46.0064 20.5483 46.3899 20.1847 46.6513 19.7358C46.9183 19.2812 47.0518 18.7955 47.0518 18.2784V16.5909C46.9609 16.6818 46.7848 16.767 46.5234 16.8466C46.2678 16.9205 45.9751 16.9858 45.6456 17.0426C45.3161 17.0937 44.995 17.142 44.6825 17.1875C44.37 17.2273 44.1087 17.2614 43.8984 17.2898C43.4041 17.3523 42.9524 17.4574 42.5433 17.6051C42.1399 17.7528 41.8161 17.9659 41.5717 18.2443C41.3331 18.517 41.2138 18.8807 41.2138 19.3352C41.2138 19.9659 41.4467 20.4432 41.9126 20.767C42.3786 21.0852 42.9723 21.2443 43.6939 21.2443ZM64.2464 23.2557C63.1896 23.2557 62.2464 22.9858 61.4169 22.446C60.593 21.9006 59.9453 21.125 59.4737 20.1193C59.0078 19.108 58.7749 17.8949 58.7749 16.4801C58.7749 15.0653 59.0107 13.8551 59.4822 12.8494C59.9595 11.8437 60.6129 11.0739 61.4425 10.5398C62.272 10.0057 63.2124 9.73864 64.2635 9.73864C65.076 9.73864 65.7294 9.875 66.2237 10.1477C66.7237 10.4148 67.1101 10.7273 67.3828 11.0852C67.6612 11.4432 67.8771 11.7585 68.0305 12.0312H68.1839V5.54545H70.7322V23H68.2436V20.9631H68.0305C67.8771 21.2415 67.6555 21.5597 67.3658 21.9176C67.0817 22.2756 66.6896 22.5881 66.1896 22.8551C65.6896 23.1222 65.0419 23.2557 64.2464 23.2557ZM64.8089 21.0824C65.5419 21.0824 66.1612 20.8892 66.6669 20.5028C67.1783 20.1108 67.5646 19.5682 67.826 18.875C68.093 18.1818 68.2266 17.375 68.2266 16.4545C68.2266 15.5455 68.0959 14.75 67.8345 14.0682C67.5732 13.3864 67.1896 12.8551 66.6839 12.4744C66.1783 12.0937 65.5533 11.9034 64.8089 11.9034C64.0419 11.9034 63.4027 12.1023 62.8913 12.5C62.38 12.8977 61.9936 13.4403 61.7322 14.1278C61.4766 14.8153 61.3487 15.5909 61.3487 16.4545C61.3487 17.3295 61.4794 18.1165 61.7408 18.8153C62.0021 19.5142 62.3885 20.0682 62.8999 20.4773C63.4169 20.8807 64.0533 21.0824 64.8089 21.0824ZM78.179 23.2898C77.3494 23.2898 76.5994 23.1364 75.929 22.8295C75.2585 22.517 74.7273 22.0653 74.3352 21.4744C73.9489 20.8835 73.7557 20.1591 73.7557 19.3011C73.7557 18.5625 73.8977 17.9545 74.1818 17.4773C74.4659 17 74.8494 16.6222 75.3324 16.3438C75.8153 16.0653 76.3551 15.8551 76.9517 15.7131C77.5483 15.571 78.1563 15.4631 78.7756 15.3892C79.5597 15.2983 80.196 15.2244 80.6847 15.1676C81.1733 15.1051 81.5284 15.0057 81.75 14.8693C81.9716 14.733 82.0824 14.5114 82.0824 14.2045V14.1449C82.0824 13.4006 81.8722 12.8239 81.4517 12.4148C81.0369 12.0057 80.4176 11.8011 79.5938 11.8011C78.7358 11.8011 78.0597 11.9915 77.5653 12.3722C77.0767 12.7472 76.7386 13.1648 76.5511 13.625L74.1562 13.0795C74.4403 12.2841 74.8551 11.642 75.4006 11.1534C75.9517 10.6591 76.5852 10.3011 77.3011 10.0795C78.017 9.85227 78.7699 9.73864 79.5597 9.73864C80.0824 9.73864 80.6364 9.80114 81.2216 9.92614C81.8125 10.0455 82.3636 10.267 82.875 10.5909C83.392 10.9148 83.8153 11.3778 84.1449 11.9801C84.4744 12.5767 84.6392 13.3523 84.6392 14.3068V23H82.1506V21.2102H82.0483C81.8835 21.5398 81.6364 21.8636 81.3068 22.1818C80.9773 22.5 80.554 22.7642 80.0369 22.9744C79.5199 23.1847 78.9006 23.2898 78.179 23.2898ZM78.733 21.2443C79.4375 21.2443 80.0398 21.1051 80.5398 20.8267C81.0455 20.5483 81.429 20.1847 81.6903 19.7358C81.9574 19.2812 82.0909 18.7955 82.0909 18.2784V16.5909C82 16.6818 81.8239 16.767 81.5625 16.8466C81.3068 16.9205 81.0142 16.9858 80.6847 17.0426C80.3551 17.0937 80.0341 17.142 79.7216 17.1875C79.4091 17.2273 79.1477 17.2614 78.9375 17.2898C78.4432 17.3523 77.9915 17.4574 77.5824 17.6051C77.179 17.7528 76.8551 17.9659 76.6108 18.2443C76.3722 18.517 76.2528 18.8807 76.2528 19.3352C76.2528 19.9659 76.4858 20.4432 76.9517 20.767C77.4176 21.0852 78.0114 21.2443 78.733 21.2443ZM97.843 13.1051L95.5334 13.5142C95.4368 13.2187 95.2834 12.9375 95.0732 12.6705C94.8686 12.4034 94.5902 12.1847 94.2379 12.0142C93.8857 11.8437 93.4453 11.7585 92.9169 11.7585C92.1953 11.7585 91.593 11.9205 91.1101 12.2443C90.6271 12.5625 90.3857 12.9744 90.3857 13.4801C90.3857 13.9176 90.5476 14.2699 90.8714 14.5369C91.1953 14.804 91.718 15.0227 92.4396 15.1932L94.5192 15.6705C95.7237 15.9489 96.6214 16.3778 97.2124 16.9574C97.8033 17.5369 98.0987 18.2898 98.0987 19.2159C98.0987 20 97.8714 20.6989 97.4169 21.3125C96.968 21.9205 96.3402 22.3977 95.5334 22.7443C94.7322 23.0909 93.8033 23.2642 92.7464 23.2642C91.2805 23.2642 90.0845 22.9517 89.1584 22.3267C88.2322 21.696 87.6641 20.8011 87.4538 19.642L89.9169 19.267C90.0703 19.9091 90.3857 20.3949 90.8629 20.7244C91.3402 21.0483 91.9624 21.2102 92.7294 21.2102C93.5646 21.2102 94.2322 21.0369 94.7322 20.6903C95.2322 20.3381 95.4822 19.9091 95.4822 19.4034C95.4822 18.9943 95.3288 18.6506 95.022 18.3722C94.7209 18.0937 94.2578 17.8835 93.6328 17.7415L91.4169 17.2557C90.1953 16.9773 89.2919 16.5341 88.7067 15.9261C88.1271 15.3182 87.8374 14.5483 87.8374 13.6165C87.8374 12.8437 88.0533 12.1676 88.4851 11.5881C88.9169 11.0085 89.5135 10.5568 90.2749 10.233C91.0362 9.90341 91.9084 9.73864 92.8913 9.73864C94.3061 9.73864 95.4197 10.0455 96.2322 10.6591C97.0447 11.267 97.5817 12.0824 97.843 13.1051ZM103.449 15.2273V23H100.901V5.54545H103.415V12.0398H103.577C103.884 11.3352 104.352 10.7756 104.983 10.3608C105.614 9.94602 106.438 9.73864 107.455 9.73864C108.352 9.73864 109.136 9.9233 109.807 10.2926C110.483 10.6619 111.006 11.2131 111.375 11.946C111.75 12.6733 111.938 13.5824 111.938 14.6733V23H109.389V14.9801C109.389 14.0199 109.142 13.2756 108.648 12.7472C108.153 12.2131 107.466 11.946 106.585 11.946C105.983 11.946 105.443 12.0739 104.966 12.3295C104.494 12.5852 104.122 12.9602 103.849 13.4545C103.582 13.9432 103.449 14.5341 103.449 15.2273ZM115.543 23V5.54545H118.091V12.0312H118.244C118.392 11.7585 118.605 11.4432 118.884 11.0852C119.162 10.7273 119.548 10.4148 120.043 10.1477C120.537 9.875 121.19 9.73864 122.003 9.73864C123.06 9.73864 124.003 10.0057 124.832 10.5398C125.662 11.0739 126.313 11.8437 126.784 12.8494C127.261 13.8551 127.5 15.0653 127.5 16.4801C127.5 17.8949 127.264 19.108 126.793 20.1193C126.321 21.125 125.673 21.9006 124.849 22.446C124.026 22.9858 123.085 23.2557 122.028 23.2557C121.233 23.2557 120.582 23.1222 120.077 22.8551C119.577 22.5881 119.185 22.2756 118.901 21.9176C118.616 21.5597 118.398 21.2415 118.244 20.9631H118.031V23H115.543ZM118.04 16.4545C118.04 17.375 118.173 18.1818 118.44 18.875C118.707 19.5682 119.094 20.1108 119.599 20.5028C120.105 20.8892 120.724 21.0824 121.457 21.0824C122.219 21.0824 122.855 20.8807 123.366 20.4773C123.878 20.0682 124.264 19.5142 124.526 18.8153C124.793 18.1165 124.926 17.3295 124.926 16.4545C124.926 15.5909 124.795 14.8153 124.534 14.1278C124.278 13.4403 123.892 12.8977 123.375 12.5C122.864 12.1023 122.224 11.9034 121.457 11.9034C120.719 11.9034 120.094 12.0937 119.582 12.4744C119.077 12.8551 118.693 13.3864 118.432 14.0682C118.17 14.75 118.04 15.5455 118.04 16.4545ZM135.876 23.2642C134.648 23.2642 133.577 22.983 132.663 22.4205C131.748 21.858 131.038 21.071 130.532 20.0597C130.026 19.0483 129.773 17.8665 129.773 16.5142C129.773 15.1562 130.026 13.9687 130.532 12.9517C131.038 11.9347 131.748 11.1449 132.663 10.5824C133.577 10.0199 134.648 9.73864 135.876 9.73864C137.103 9.73864 138.174 10.0199 139.089 10.5824C140.004 11.1449 140.714 11.9347 141.219 12.9517C141.725 13.9687 141.978 15.1562 141.978 16.5142C141.978 17.8665 141.725 19.0483 141.219 20.0597C140.714 21.071 140.004 21.858 139.089 22.4205C138.174 22.983 137.103 23.2642 135.876 23.2642ZM135.884 21.125C136.68 21.125 137.339 20.9148 137.862 20.4943C138.384 20.0739 138.771 19.5142 139.021 18.8153C139.276 18.1165 139.404 17.3466 139.404 16.5057C139.404 15.6705 139.276 14.9034 139.021 14.2045C138.771 13.5 138.384 12.9347 137.862 12.5085C137.339 12.0824 136.68 11.8693 135.884 11.8693C135.083 11.8693 134.418 12.0824 133.89 12.5085C133.367 12.9347 132.978 13.5 132.722 14.2045C132.472 14.9034 132.347 15.6705 132.347 16.5057C132.347 17.3466 132.472 18.1165 132.722 18.8153C132.978 19.5142 133.367 20.0739 133.89 20.4943C134.418 20.9148 135.083 21.125 135.884 21.125ZM148.632 23.2898C147.803 23.2898 147.053 23.1364 146.382 22.8295C145.712 22.517 145.18 22.0653 144.788 21.4744C144.402 20.8835 144.209 20.1591 144.209 19.3011C144.209 18.5625 144.351 17.9545 144.635 17.4773C144.919 17 145.303 16.6222 145.786 16.3438C146.268 16.0653 146.808 15.8551 147.405 15.7131C148.001 15.571 148.609 15.4631 149.229 15.3892C150.013 15.2983 150.649 15.2244 151.138 15.1676C151.626 15.1051 151.982 15.0057 152.203 14.8693C152.425 14.733 152.536 14.5114 152.536 14.2045V14.1449C152.536 13.4006 152.325 12.8239 151.905 12.4148C151.49 12.0057 150.871 11.8011 150.047 11.8011C149.189 11.8011 148.513 11.9915 148.018 12.3722C147.53 12.7472 147.192 13.1648 147.004 13.625L144.609 13.0795C144.893 12.2841 145.308 11.642 145.854 11.1534C146.405 10.6591 147.038 10.3011 147.754 10.0795C148.47 9.85227 149.223 9.73864 150.013 9.73864C150.536 9.73864 151.089 9.80114 151.675 9.92614C152.266 10.0455 152.817 10.267 153.328 10.5909C153.845 10.9148 154.268 11.3778 154.598 11.9801C154.928 12.5767 155.092 13.3523 155.092 14.3068V23H152.604V21.2102H152.501C152.337 21.5398 152.089 21.8636 151.76 22.1818C151.43 22.5 151.007 22.7642 150.49 22.9744C149.973 23.1847 149.354 23.2898 148.632 23.2898ZM149.186 21.2443C149.891 21.2443 150.493 21.1051 150.993 20.8267C151.499 20.5483 151.882 20.1847 152.143 19.7358C152.411 19.2812 152.544 18.7955 152.544 18.2784V16.5909C152.453 16.6818 152.277 16.767 152.016 16.8466C151.76 16.9205 151.467 16.9858 151.138 17.0426C150.808 17.0937 150.487 17.142 150.175 17.1875C149.862 17.2273 149.601 17.2614 149.391 17.2898C148.896 17.3523 148.445 17.4574 148.036 17.6051C147.632 17.7528 147.308 17.9659 147.064 18.2443C146.825 18.517 146.706 18.8807 146.706 19.3352C146.706 19.9659 146.939 20.4432 147.405 20.767C147.871 21.0852 148.464 21.2443 149.186 21.2443ZM158.487 23V9.90909H160.95V11.9886H161.086C161.325 11.2841 161.745 10.7301 162.347 10.3267C162.955 9.91761 163.643 9.71307 164.41 9.71307C164.569 9.71307 164.756 9.71875 164.972 9.73011C165.194 9.74148 165.367 9.75568 165.492 9.77273V12.2102C165.39 12.1818 165.208 12.1506 164.947 12.1165C164.685 12.0767 164.424 12.0568 164.163 12.0568C163.56 12.0568 163.023 12.1847 162.552 12.4403C162.086 12.6903 161.717 13.0398 161.444 13.4886C161.171 13.9318 161.035 14.4375 161.035 15.0057V23H158.487ZM172.129 23.2557C171.072 23.2557 170.129 22.9858 169.3 22.446C168.476 21.9006 167.828 21.125 167.357 20.1193C166.891 19.108 166.658 17.8949 166.658 16.4801C166.658 15.0653 166.893 13.8551 167.365 12.8494C167.842 11.8437 168.496 11.0739 169.325 10.5398C170.155 10.0057 171.095 9.73864 172.146 9.73864C172.959 9.73864 173.612 9.875 174.107 10.1477C174.607 10.4148 174.993 10.7273 175.266 11.0852C175.544 11.4432 175.76 11.7585 175.913 12.0312H176.067V5.54545H178.615V23H176.126V20.9631H175.913C175.76 21.2415 175.538 21.5597 175.249 21.9176C174.964 22.2756 174.572 22.5881 174.072 22.8551C173.572 23.1222 172.925 23.2557 172.129 23.2557ZM172.692 21.0824C173.425 21.0824 174.044 20.8892 174.55 20.5028C175.061 20.1108 175.447 19.5682 175.709 18.875C175.976 18.1818 176.109 17.375 176.109 16.4545C176.109 15.5455 175.979 14.75 175.717 14.0682C175.456 13.3864 175.072 12.8551 174.567 12.4744C174.061 12.0937 173.436 11.9034 172.692 11.9034C171.925 11.9034 171.286 12.1023 170.774 12.5C170.263 12.8977 169.876 13.4403 169.615 14.1278C169.359 14.8153 169.232 15.5909 169.232 16.4545C169.232 17.3295 169.362 18.1165 169.624 18.8153C169.885 19.5142 170.271 20.0682 170.783 20.4773C171.3 20.8807 171.936 21.0824 172.692 21.0824Z" fill="#FF005C"/>
<path d="M192 23.4614L200.077 13.8234L192 4.99989" stroke="#FFBC96" stroke-width="3" stroke-linecap="round"/>
<path d="M202.961 23.4614L211.038 13.8234L202.961 4.99989" stroke="#FF8982" stroke-width="3" stroke-linecap="round"/>
<path d="M213.923 23.4614L222 13.8234L213.923 4.99989" stroke="#FF4F64" stroke-width="3" stroke-linecap="round"/>
</svg>
