<svg width="331" height="29" viewBox="0 0 331 29" fill="none" xmlns="http://www.w3.org/2000/svg">
<path d="M45.5227 23.2898C44.6932 23.2898 43.9432 23.1364 43.2727 22.8295C42.6023 22.517 42.071 22.0653 41.679 21.4744C41.2926 20.8835 41.0994 20.1591 41.0994 19.3011C41.0994 18.5625 41.2415 17.9545 41.5256 17.4773C41.8097 17 42.1932 16.6222 42.6761 16.3438C43.1591 16.0653 43.6989 15.8551 44.2955 15.7131C44.892 15.571 45.5 15.4631 46.1193 15.3892C46.9034 15.2983 47.5398 15.2244 48.0284 15.1676C48.517 15.1051 48.8722 15.0057 49.0938 14.8693C49.3153 14.733 49.4261 14.5114 49.4261 14.2045V14.1449C49.4261 13.4006 49.2159 12.8239 48.7955 12.4148C48.3807 12.0057 47.7614 11.8011 46.9375 11.8011C46.0795 11.8011 45.4034 11.9915 44.9091 12.3722C44.4205 12.7472 44.0824 13.1648 43.8949 13.625L41.5 13.0795C41.7841 12.2841 42.1989 11.642 42.7443 11.1534C43.2955 10.6591 43.929 10.3011 44.6449 10.0795C45.3608 9.85227 46.1136 9.73864 46.9034 9.73864C47.4261 9.73864 47.9801 9.80114 48.5653 9.92614C49.1563 10.0455 49.7074 10.267 50.2188 10.5909C50.7358 10.9148 51.1591 11.3778 51.4886 11.9801C51.8182 12.5767 51.983 13.3523 51.983 14.3068V23H49.4943V21.2102H49.392C49.2273 21.5398 48.9801 21.8636 48.6506 22.1818C48.321 22.5 47.8977 22.7642 47.3807 22.9744C46.8636 23.1847 46.2443 23.2898 45.5227 23.2898ZM46.0767 21.2443C46.7813 21.2443 47.3835 21.1051 47.8835 20.8267C48.3892 20.5483 48.7727 20.1847 49.0341 19.7358C49.3011 19.2812 49.4347 18.7955 49.4347 18.2784V16.5909C49.3438 16.6818 49.1676 16.767 48.9062 16.8466C48.6506 16.9205 48.358 16.9858 48.0284 17.0426C47.6989 17.0937 47.3778 17.142 47.0653 17.1875C46.7528 17.2273 46.4915 17.2614 46.2812 17.2898C45.7869 17.3523 45.3352 17.4574 44.9261 17.6051C44.5227 17.7528 44.1989 17.9659 43.9545 18.2443C43.7159 18.517 43.5966 18.8807 43.5966 19.3352C43.5966 19.9659 43.8295 20.4432 44.2955 20.767C44.7614 21.0852 45.3551 21.2443 46.0767 21.2443ZM55.3771 27.9091V9.90909H57.8658V12.0312H58.0788C58.2266 11.7585 58.4396 11.4432 58.718 11.0852C58.9964 10.7273 59.3828 10.4148 59.8771 10.1477C60.3714 9.875 61.0249 9.73864 61.8374 9.73864C62.8942 9.73864 63.8374 10.0057 64.6669 10.5398C65.4964 11.0739 66.147 11.8437 66.6186 12.8494C67.0959 13.8551 67.3345 15.0653 67.3345 16.4801C67.3345 17.8949 67.0987 19.108 66.6271 20.1193C66.1555 21.125 65.5078 21.9006 64.6839 22.446C63.8601 22.9858 62.9197 23.2557 61.8629 23.2557C61.0675 23.2557 60.4169 23.1222 59.9112 22.8551C59.4112 22.5881 59.0192 22.2756 58.7351 21.9176C58.451 21.5597 58.2322 21.2415 58.0788 20.9631H57.9254V27.9091H55.3771ZM57.8743 16.4545C57.8743 17.375 58.0078 18.1818 58.2749 18.875C58.5419 19.5682 58.9283 20.1108 59.4339 20.5028C59.9396 20.8892 60.5589 21.0824 61.2919 21.0824C62.0533 21.0824 62.6896 20.8807 63.201 20.4773C63.7124 20.0682 64.0987 19.5142 64.3601 18.8153C64.6271 18.1165 64.7607 17.3295 64.7607 16.4545C64.7607 15.5909 64.63 14.8153 64.3686 14.1278C64.1129 13.4403 63.7266 12.8977 63.2095 12.5C62.6982 12.1023 62.0589 11.9034 61.2919 11.9034C60.5533 11.9034 59.9283 12.0937 59.4169 12.4744C58.9112 12.8551 58.5277 13.3864 58.2663 14.0682C58.005 14.75 57.8743 15.5455 57.8743 16.4545ZM70.1896 27.9091V9.90909H72.6783V12.0312H72.8913C73.0391 11.7585 73.2521 11.4432 73.5305 11.0852C73.8089 10.7273 74.1953 10.4148 74.6896 10.1477C75.1839 9.875 75.8374 9.73864 76.6499 9.73864C77.7067 9.73864 78.6499 10.0057 79.4794 10.5398C80.3089 11.0739 80.9595 11.8437 81.4311 12.8494C81.9084 13.8551 82.147 15.0653 82.147 16.4801C82.147 17.8949 81.9112 19.108 81.4396 20.1193C80.968 21.125 80.3203 21.9006 79.4964 22.446C78.6726 22.9858 77.7322 23.2557 76.6754 23.2557C75.88 23.2557 75.2294 23.1222 74.7237 22.8551C74.2237 22.5881 73.8317 22.2756 73.5476 21.9176C73.2635 21.5597 73.0447 21.2415 72.8913 20.9631H72.7379V27.9091H70.1896ZM72.6868 16.4545C72.6868 17.375 72.8203 18.1818 73.0874 18.875C73.3544 19.5682 73.7408 20.1108 74.2464 20.5028C74.7521 20.8892 75.3714 21.0824 76.1044 21.0824C76.8658 21.0824 77.5021 20.8807 78.0135 20.4773C78.5249 20.0682 78.9112 19.5142 79.1726 18.8153C79.4396 18.1165 79.5732 17.3295 79.5732 16.4545C79.5732 15.5909 79.4425 14.8153 79.1811 14.1278C78.9254 13.4403 78.5391 12.8977 78.022 12.5C77.5107 12.1023 76.8714 11.9034 76.1044 11.9034C75.3658 11.9034 74.7408 12.0937 74.2294 12.4744C73.7237 12.8551 73.3402 13.3864 73.0788 14.0682C72.8175 14.75 72.6868 15.5455 72.6868 16.4545ZM90.5163 23.2642C89.2891 23.2642 88.218 22.983 87.3033 22.4205C86.3885 21.858 85.6783 21.071 85.1726 20.0597C84.6669 19.0483 84.4141 17.8665 84.4141 16.5142C84.4141 15.1562 84.6669 13.9687 85.1726 12.9517C85.6783 11.9347 86.3885 11.1449 87.3033 10.5824C88.218 10.0199 89.2891 9.73864 90.5163 9.73864C91.7436 9.73864 92.8146 10.0199 93.7294 10.5824C94.6442 11.1449 95.3544 11.9347 95.8601 12.9517C96.3658 13.9687 96.6186 15.1562 96.6186 16.5142C96.6186 17.8665 96.3658 19.0483 95.8601 20.0597C95.3544 21.071 94.6442 21.858 93.7294 22.4205C92.8146 22.983 91.7436 23.2642 90.5163 23.2642ZM90.5249 21.125C91.3203 21.125 91.9794 20.9148 92.5021 20.4943C93.0249 20.0739 93.4112 19.5142 93.6612 18.8153C93.9169 18.1165 94.0447 17.3466 94.0447 16.5057C94.0447 15.6705 93.9169 14.9034 93.6612 14.2045C93.4112 13.5 93.0249 12.9347 92.5021 12.5085C91.9794 12.0824 91.3203 11.8693 90.5249 11.8693C89.7237 11.8693 89.0589 12.0824 88.5305 12.5085C88.0078 12.9347 87.6186 13.5 87.3629 14.2045C87.1129 14.9034 86.9879 15.6705 86.9879 16.5057C86.9879 17.3466 87.1129 18.1165 87.3629 18.8153C87.6186 19.5142 88.0078 20.0739 88.5305 20.4943C89.0589 20.9148 89.7237 21.125 90.5249 21.125ZM99.4631 23V9.90909H102.011V23H99.4631ZM100.75 7.8892C100.307 7.8892 99.9261 7.74148 99.608 7.44602C99.2955 7.14489 99.1392 6.78693 99.1392 6.37216C99.1392 5.9517 99.2955 5.59375 99.608 5.29829C99.9261 4.99716 100.307 4.84659 100.75 4.84659C101.193 4.84659 101.571 4.99716 101.884 5.29829C102.202 5.59375 102.361 5.9517 102.361 6.37216C102.361 6.78693 102.202 7.14489 101.884 7.44602C101.571 7.74148 101.193 7.8892 100.75 7.8892ZM107.988 15.2273V23H105.44V9.90909H107.886V12.0398H108.048C108.349 11.3466 108.82 10.7898 109.462 10.3693C110.11 9.94886 110.925 9.73864 111.908 9.73864C112.8 9.73864 113.582 9.92614 114.252 10.3011C114.923 10.6705 115.442 11.2216 115.812 11.9545C116.181 12.6875 116.366 13.5937 116.366 14.6733V23H113.817V14.9801C113.817 14.0312 113.57 13.2898 113.076 12.7557C112.582 12.2159 111.903 11.946 111.039 11.946C110.448 11.946 109.923 12.0739 109.462 12.3295C109.008 12.5852 108.647 12.9602 108.38 13.4545C108.119 13.9432 107.988 14.5341 107.988 15.2273ZM125.894 9.90909V11.9545H118.744V9.90909H125.894ZM120.661 6.77273H123.21V19.1562C123.21 19.6506 123.283 20.0227 123.431 20.2727C123.579 20.517 123.769 20.6847 124.002 20.7756C124.241 20.8608 124.499 20.9034 124.778 20.9034C124.982 20.9034 125.161 20.8892 125.315 20.8608C125.468 20.8324 125.587 20.8097 125.673 20.7926L126.133 22.8977C125.985 22.9545 125.775 23.0114 125.502 23.0682C125.229 23.1307 124.888 23.1648 124.479 23.1705C123.809 23.1818 123.184 23.0625 122.604 22.8125C122.025 22.5625 121.556 22.1761 121.198 21.6534C120.84 21.1307 120.661 20.4744 120.661 19.6847V6.77273ZM128.713 23V9.90909H131.159V12.0398H131.321C131.594 11.3182 132.04 10.7557 132.659 10.3523C133.278 9.94318 134.02 9.73864 134.884 9.73864C135.759 9.73864 136.491 9.94318 137.082 10.3523C137.679 10.7614 138.119 11.3239 138.403 12.0398H138.54C138.852 11.3409 139.349 10.7841 140.031 10.3693C140.713 9.94886 141.526 9.73864 142.469 9.73864C143.656 9.73864 144.625 10.1108 145.375 10.8551C146.131 11.5994 146.509 12.7216 146.509 14.2216V23H143.96V14.4602C143.96 13.5739 143.719 12.9318 143.236 12.5341C142.753 12.1364 142.176 11.9375 141.506 11.9375C140.676 11.9375 140.031 12.1932 139.571 12.7045C139.111 13.2102 138.881 13.8608 138.881 14.6562V23H136.341V14.2983C136.341 13.5881 136.119 13.017 135.676 12.5852C135.233 12.1534 134.656 11.9375 133.946 11.9375C133.463 11.9375 133.017 12.0653 132.608 12.321C132.205 12.571 131.878 12.9205 131.628 13.3693C131.384 13.8182 131.261 14.3381 131.261 14.929V23H128.713ZM155.566 23.2642C154.276 23.2642 153.165 22.9886 152.234 22.4375C151.308 21.8807 150.592 21.0994 150.086 20.0938C149.586 19.0824 149.336 17.8977 149.336 16.5398C149.336 15.1989 149.586 14.017 150.086 12.9943C150.592 11.9716 151.296 11.1733 152.2 10.5994C153.109 10.0256 154.171 9.73864 155.387 9.73864C156.126 9.73864 156.842 9.8608 157.535 10.1051C158.228 10.3494 158.85 10.733 159.401 11.2557C159.952 11.7784 160.387 12.4574 160.705 13.2926C161.023 14.1222 161.183 15.1307 161.183 16.3182V17.2216H150.776V15.3125H158.685C158.685 14.642 158.549 14.0483 158.276 13.5312C158.004 13.0085 157.62 12.5966 157.126 12.2955C156.637 11.9943 156.063 11.8438 155.404 11.8438C154.688 11.8438 154.063 12.0199 153.529 12.3722C153.001 12.7187 152.592 13.1733 152.302 13.7358C152.018 14.2926 151.876 14.8977 151.876 15.5511V17.0426C151.876 17.9176 152.029 18.6619 152.336 19.2756C152.648 19.8892 153.083 20.358 153.64 20.6818C154.197 21 154.847 21.1591 155.592 21.1591C156.075 21.1591 156.515 21.0909 156.913 20.9545C157.31 20.8125 157.654 20.6023 157.944 20.3239C158.234 20.0455 158.455 19.7017 158.609 19.2926L161.021 19.7273C160.827 20.4375 160.481 21.0597 159.981 21.5938C159.487 22.1222 158.864 22.5341 158.114 22.8295C157.37 23.1193 156.521 23.2642 155.566 23.2642ZM166.558 15.2273V23H164.01V9.90909H166.456V12.0398H166.618C166.919 11.3466 167.391 10.7898 168.033 10.3693C168.68 9.94886 169.496 9.73864 170.479 9.73864C171.371 9.73864 172.152 9.92614 172.822 10.3011C173.493 10.6705 174.013 11.2216 174.382 11.9545C174.751 12.6875 174.936 13.5937 174.936 14.6733V23H172.388V14.9801C172.388 14.0312 172.141 13.2898 171.646 12.7557C171.152 12.2159 170.473 11.946 169.609 11.946C169.018 11.946 168.493 12.0739 168.033 12.3295C167.578 12.5852 167.217 12.9602 166.95 13.4545C166.689 13.9432 166.558 14.5341 166.558 15.2273ZM184.464 9.90909V11.9545H177.314V9.90909H184.464ZM179.232 6.77273H181.78V19.1562C181.78 19.6506 181.854 20.0227 182.001 20.2727C182.149 20.517 182.339 20.6847 182.572 20.7756C182.811 20.8608 183.07 20.9034 183.348 20.9034C183.553 20.9034 183.732 20.8892 183.885 20.8608C184.038 20.8324 184.158 20.8097 184.243 20.7926L184.703 22.8977C184.555 22.9545 184.345 23.0114 184.072 23.0682C183.8 23.1307 183.459 23.1648 183.05 23.1705C182.379 23.1818 181.754 23.0625 181.175 22.8125C180.595 22.5625 180.126 22.1761 179.768 21.6534C179.411 21.1307 179.232 20.4744 179.232 19.6847V6.77273ZM203.445 13.1051L201.135 13.5142C201.038 13.2187 200.885 12.9375 200.675 12.6705C200.47 12.4034 200.192 12.1847 199.839 12.0142C199.487 11.8437 199.047 11.7585 198.518 11.7585C197.797 11.7585 197.195 11.9205 196.712 12.2443C196.229 12.5625 195.987 12.9744 195.987 13.4801C195.987 13.9176 196.149 14.2699 196.473 14.5369C196.797 14.804 197.32 15.0227 198.041 15.1932L200.121 15.6705C201.325 15.9489 202.223 16.3778 202.814 16.9574C203.405 17.5369 203.7 18.2898 203.7 19.2159C203.7 20 203.473 20.6989 203.018 21.3125C202.57 21.9205 201.942 22.3977 201.135 22.7443C200.334 23.0909 199.405 23.2642 198.348 23.2642C196.882 23.2642 195.686 22.9517 194.76 22.3267C193.834 21.696 193.266 20.8011 193.055 19.642L195.518 19.267C195.672 19.9091 195.987 20.3949 196.464 20.7244C196.942 21.0483 197.564 21.2102 198.331 21.2102C199.166 21.2102 199.834 21.0369 200.334 20.6903C200.834 20.3381 201.084 19.9091 201.084 19.4034C201.084 18.9943 200.93 18.6506 200.624 18.3722C200.322 18.0937 199.859 17.8835 199.234 17.7415L197.018 17.2557C195.797 16.9773 194.893 16.5341 194.308 15.9261C193.729 15.3182 193.439 14.5483 193.439 13.6165C193.439 12.8437 193.655 12.1676 194.087 11.5881C194.518 11.0085 195.115 10.5568 195.876 10.233C196.638 9.90341 197.51 9.73864 198.493 9.73864C199.908 9.73864 201.021 10.0455 201.834 10.6591C202.646 11.267 203.183 12.0824 203.445 13.1051ZM212.016 23.2642C210.749 23.2642 209.658 22.9773 208.744 22.4034C207.835 21.8239 207.136 21.0256 206.647 20.0085C206.158 18.9915 205.914 17.8267 205.914 16.5142C205.914 15.1847 206.164 14.0114 206.664 12.9943C207.164 11.9716 207.869 11.1733 208.778 10.5994C209.687 10.0256 210.758 9.73864 211.991 9.73864C212.985 9.73864 213.871 9.9233 214.65 10.2926C215.428 10.6562 216.056 11.1676 216.533 11.8267C217.016 12.4858 217.303 13.2557 217.394 14.1364H214.914C214.778 13.5227 214.465 12.9943 213.977 12.5511C213.494 12.108 212.846 11.8864 212.033 11.8864C211.323 11.8864 210.701 12.0739 210.167 12.4489C209.638 12.8182 209.227 13.3466 208.931 14.0341C208.636 14.7159 208.488 15.5227 208.488 16.4545C208.488 17.4091 208.633 18.233 208.923 18.9261C209.212 19.6193 209.621 20.1562 210.15 20.5369C210.684 20.9176 211.312 21.108 212.033 21.108C212.516 21.108 212.954 21.0199 213.346 20.8438C213.744 20.6619 214.076 20.4034 214.343 20.0682C214.616 19.733 214.806 19.3295 214.914 18.858H217.394C217.303 19.7045 217.028 20.4602 216.567 21.125C216.107 21.7898 215.491 22.3125 214.718 22.6932C213.951 23.0739 213.05 23.2642 212.016 23.2642ZM222.668 15.2273V23H220.119V5.54545H222.634V12.0398H222.795C223.102 11.3352 223.571 10.7756 224.202 10.3608C224.832 9.94602 225.656 9.73864 226.673 9.73864C227.571 9.73864 228.355 9.9233 229.026 10.2926C229.702 10.6619 230.224 11.2131 230.594 11.946C230.969 12.6733 231.156 13.5824 231.156 14.6733V23H228.608V14.9801C228.608 14.0199 228.361 13.2756 227.866 12.7472C227.372 12.2131 226.685 11.946 225.804 11.946C225.202 11.946 224.662 12.0739 224.185 12.3295C223.713 12.5852 223.341 12.9602 223.068 13.4545C222.801 13.9432 222.668 14.5341 222.668 15.2273ZM240.199 23.2642C238.909 23.2642 237.798 22.9886 236.866 22.4375C235.94 21.8807 235.224 21.0994 234.719 20.0938C234.219 19.0824 233.969 17.8977 233.969 16.5398C233.969 15.1989 234.219 14.017 234.719 12.9943C235.224 11.9716 235.929 11.1733 236.832 10.5994C237.741 10.0256 238.804 9.73864 240.02 9.73864C240.759 9.73864 241.474 9.8608 242.168 10.1051C242.861 10.3494 243.483 10.733 244.034 11.2557C244.585 11.7784 245.02 12.4574 245.338 13.2926C245.656 14.1222 245.815 15.1307 245.815 16.3182V17.2216H235.409V15.3125H243.318C243.318 14.642 243.182 14.0483 242.909 13.5312C242.636 13.0085 242.253 12.5966 241.759 12.2955C241.27 11.9943 240.696 11.8438 240.037 11.8438C239.321 11.8438 238.696 12.0199 238.162 12.3722C237.634 12.7187 237.224 13.1733 236.935 13.7358C236.651 14.2926 236.509 14.8977 236.509 15.5511V17.0426C236.509 17.9176 236.662 18.6619 236.969 19.2756C237.281 19.8892 237.716 20.358 238.273 20.6818C238.83 21 239.48 21.1591 240.224 21.1591C240.707 21.1591 241.148 21.0909 241.545 20.9545C241.943 20.8125 242.287 20.6023 242.577 20.3239C242.866 20.0455 243.088 19.7017 243.241 19.2926L245.653 19.7273C245.46 20.4375 245.114 21.0597 244.614 21.5938C244.119 22.1222 243.497 22.5341 242.747 22.8295C242.003 23.1193 241.153 23.2642 240.199 23.2642ZM253.543 23.2557C252.487 23.2557 251.543 22.9858 250.714 22.446C249.89 21.9006 249.242 21.125 248.771 20.1193C248.305 19.108 248.072 17.8949 248.072 16.4801C248.072 15.0653 248.308 13.8551 248.779 12.8494C249.256 11.8437 249.91 11.0739 250.739 10.5398C251.569 10.0057 252.509 9.73864 253.56 9.73864C254.373 9.73864 255.026 9.875 255.521 10.1477C256.021 10.4148 256.407 10.7273 256.68 11.0852C256.958 11.4432 257.174 11.7585 257.327 12.0312H257.481V5.54545H260.029V23H257.54V20.9631H257.327C257.174 21.2415 256.952 21.5597 256.663 21.9176C256.379 22.2756 255.987 22.5881 255.487 22.8551C254.987 23.1222 254.339 23.2557 253.543 23.2557ZM254.106 21.0824C254.839 21.0824 255.458 20.8892 255.964 20.5028C256.475 20.1108 256.862 19.5682 257.123 18.875C257.39 18.1818 257.523 17.375 257.523 16.4545C257.523 15.5455 257.393 14.75 257.131 14.0682C256.87 13.3864 256.487 12.8551 255.981 12.4744C255.475 12.0937 254.85 11.9034 254.106 11.9034C253.339 11.9034 252.7 12.1023 252.188 12.5C251.677 12.8977 251.29 13.4403 251.029 14.1278C250.773 14.8153 250.646 15.5909 250.646 16.4545C250.646 17.3295 250.776 18.1165 251.038 18.8153C251.299 19.5142 251.685 20.0682 252.197 20.4773C252.714 20.8807 253.35 21.0824 254.106 21.0824ZM271.959 17.571V9.90909H274.516V23H272.01V20.733H271.874C271.572 21.4318 271.089 22.0142 270.425 22.4801C269.766 22.9403 268.945 23.1705 267.962 23.1705C267.121 23.1705 266.376 22.9858 265.729 22.6165C265.087 22.2415 264.581 21.6875 264.212 20.9545C263.848 20.2216 263.666 19.3153 263.666 18.2358V9.90909H266.214V17.929C266.214 18.821 266.462 19.5312 266.956 20.0597C267.45 20.5881 268.092 20.8523 268.882 20.8523C269.359 20.8523 269.834 20.733 270.305 20.4943C270.783 20.2557 271.178 19.8949 271.49 19.4119C271.808 18.929 271.964 18.3153 271.959 17.571ZM280.488 5.54545V23H277.94V5.54545H280.488ZM283.916 23V9.90909H286.464V23H283.916ZM285.203 7.8892C284.76 7.8892 284.379 7.74148 284.061 7.44602C283.749 7.14489 283.592 6.78693 283.592 6.37216C283.592 5.9517 283.749 5.59375 284.061 5.29829C284.379 4.99716 284.76 4.84659 285.203 4.84659C285.646 4.84659 286.024 4.99716 286.337 5.29829C286.655 5.59375 286.814 5.9517 286.814 6.37216C286.814 6.78693 286.655 7.14489 286.337 7.44602C286.024 7.74148 285.646 7.8892 285.203 7.8892ZM292.441 15.2273V23H289.893V9.90909H292.339V12.0398H292.501C292.802 11.3466 293.273 10.7898 293.915 10.3693C294.563 9.94886 295.379 9.73864 296.362 9.73864C297.254 9.73864 298.035 9.92614 298.705 10.3011C299.376 10.6705 299.896 11.2216 300.265 11.9545C300.634 12.6875 300.819 13.5937 300.819 14.6733V23H298.271V14.9801C298.271 14.0312 298.023 13.2898 297.529 12.7557C297.035 12.2159 296.356 11.946 295.492 11.946C294.901 11.946 294.376 12.0739 293.915 12.3295C293.461 12.5852 293.1 12.9602 292.833 13.4545C292.572 13.9432 292.441 14.5341 292.441 15.2273ZM309.725 28.1818C308.685 28.1818 307.79 28.0455 307.04 27.7727C306.296 27.5 305.688 27.1392 305.217 26.6903C304.745 26.2415 304.393 25.75 304.16 25.2159L306.35 24.3125C306.504 24.5625 306.708 24.8267 306.964 25.1051C307.225 25.3892 307.577 25.6307 308.021 25.8295C308.469 26.0284 309.046 26.1278 309.751 26.1278C310.717 26.1278 311.515 25.892 312.146 25.4205C312.776 24.9545 313.092 24.2102 313.092 23.1875V20.6136H312.93C312.776 20.892 312.555 21.2017 312.265 21.5426C311.981 21.8835 311.589 22.179 311.089 22.429C310.589 22.679 309.938 22.804 309.137 22.804C308.103 22.804 307.171 22.5625 306.342 22.0795C305.518 21.5909 304.864 20.8722 304.381 19.9233C303.904 18.9687 303.665 17.7955 303.665 16.4034C303.665 15.0114 303.901 13.8182 304.373 12.8239C304.85 11.8295 305.504 11.0682 306.333 10.5398C307.163 10.0057 308.103 9.73864 309.154 9.73864C309.967 9.73864 310.623 9.875 311.123 10.1477C311.623 10.4148 312.012 10.7273 312.29 11.0852C312.575 11.4432 312.793 11.7585 312.947 12.0312H313.134V9.90909H315.631V23.2898C315.631 24.4148 315.37 25.3381 314.847 26.0597C314.325 26.7813 313.617 27.3153 312.725 27.6619C311.839 28.0085 310.839 28.1818 309.725 28.1818ZM309.7 20.6903C310.433 20.6903 311.052 20.5199 311.558 20.179C312.069 19.8324 312.455 19.3381 312.717 18.696C312.984 18.0483 313.117 17.2727 313.117 16.3693C313.117 15.4886 312.987 14.7131 312.725 14.0426C312.464 13.3722 312.08 12.8494 311.575 12.4744C311.069 12.0937 310.444 11.9034 309.7 11.9034C308.933 11.9034 308.293 12.1023 307.782 12.5C307.271 12.892 306.884 13.4261 306.623 14.1023C306.367 14.7784 306.239 15.5341 306.239 16.3693C306.239 17.2273 306.37 17.9801 306.631 18.6278C306.893 19.2756 307.279 19.7812 307.79 20.1449C308.308 20.5085 308.944 20.6903 309.7 20.6903Z" fill="#5F1DB4"/>
<path d="M32 6L23.9231 15.638L32 24.4615" stroke="#F1DEFF" stroke-width="3" stroke-linecap="round"/>
<path d="M21.0386 6L12.9617 15.638L21.0386 24.4615" stroke="#B486FF" stroke-width="3" stroke-linecap="round"/>
<path d="M10.0769 6L1.99998 15.638L10.0769 24.4615" stroke="#5F1DB4" stroke-width="3" stroke-linecap="round"/>
</svg>
